<svg xmlns="http://www.w3.org/2000/svg" xmlns:xlink="http://www.w3.org/1999/xlink" width="360" zoomAndPan="magnify" viewBox="0 0 270 82.499998" height="110" preserveAspectRatio="xMidYMid meet" version="1.0"><defs><g/><clipPath id="7126da92c0"><rect x="0" width="176" y="0" height="39"/></clipPath></defs><path fill="#5e696f" d="M 61.65625 32.359375 L 61.648438 32.359375 C 61.648438 32.359375 61.648438 32.359375 61.65625 32.359375 Z M 33.878906 58.152344 C 33.886719 58.144531 33.898438 58.136719 33.898438 58.132812 C 33.917969 58.128906 33.941406 58.128906 33.960938 58.128906 C 33.9375 58.136719 33.910156 58.136719 33.878906 58.152344 Z M 37.234375 69.007812 C 21.9375 63.222656 14.128906 46.179688 19.644531 30.847656 C 19.886719 31.226562 20.132812 31.640625 20.613281 31.660156 C 20.429688 32.40625 21.628906 32.105469 21.855469 32.144531 C 21.855469 32.152344 21.863281 32.160156 21.875 32.164062 C 22.050781 32.214844 22.050781 32.175781 22.09375 32.054688 C 22.113281 32.046875 22.140625 32.042969 22.160156 32.035156 C 22.308594 32.453125 22.34375 33.242188 22.875 33.308594 C 22.964844 33.332031 23.023438 33.3125 23.101562 33.308594 C 23.089844 33.742188 23.886719 33.546875 23.992188 33.863281 C 23.964844 33.851562 23.945312 33.855469 23.925781 33.867188 C 23.894531 33.847656 23.878906 33.824219 23.847656 33.8125 C 23.84375 33.8125 23.84375 33.8125 23.84375 33.8125 C 23.804688 33.796875 23.765625 33.835938 23.78125 33.875 C 23.683594 33.996094 24.0625 34.648438 24.132812 34.730469 C 24.132812 34.792969 24.117188 34.847656 24.085938 34.898438 C 24.128906 35.046875 24.136719 35.230469 24.191406 35.414062 C 24.1875 35.417969 24.183594 35.425781 24.183594 35.433594 C 24.179688 35.441406 24.183594 35.453125 24.1875 35.460938 C 24.21875 35.503906 24.253906 35.511719 24.285156 35.480469 C 24.324219 35.390625 24.285156 35.355469 24.261719 35.265625 C 24.28125 35.25 24.300781 35.226562 24.320312 35.203125 C 24.839844 35.726562 24.445312 35.925781 25.179688 36.207031 C 25.1875 36.242188 25.261719 36.65625 25.390625 36.5 C 25.398438 36.492188 25.421875 36.414062 25.421875 36.417969 C 25.410156 36.550781 25.429688 36.671875 25.488281 36.785156 C 25.410156 36.738281 26.015625 36.691406 25.734375 36.507812 C 25.726562 36.5 25.722656 36.5 25.71875 36.5 C 25.625 36.257812 25.988281 36.023438 26.199219 35.964844 C 26.316406 36.128906 26.703125 37.359375 26.535156 37.3125 L 26.554688 37.316406 C 26.65625 37.511719 26.277344 38.132812 26.480469 38.257812 L 26.488281 38.257812 C 26.542969 38.492188 25.925781 39.191406 25.804688 39.246094 C 25.792969 39.242188 25.777344 39.238281 25.765625 39.242188 C 25.710938 39.261719 25.710938 39.3125 25.734375 39.355469 C 25.667969 39.207031 24.980469 40.035156 25.125 40.121094 C 24.746094 39.886719 25.355469 41.203125 25.421875 41.15625 C 25.402344 41.445312 25.011719 41.542969 24.941406 41.800781 C 24.902344 41.808594 24.871094 41.832031 24.847656 41.863281 C 24.929688 42.644531 24.867188 43.015625 25.570312 43.65625 C 25.429688 44.109375 26.050781 44.816406 26.078125 45.222656 C 26.035156 45.460938 26.542969 45.972656 26.65625 46.175781 C 26.644531 46.265625 26.632812 46.394531 26.695312 46.472656 C 26.6875 46.46875 26.6875 46.464844 26.679688 46.460938 C 26.671875 46.457031 26.660156 46.46875 26.671875 46.480469 C 27.519531 47.3125 28.261719 48.320312 29.050781 49.125 C 29.039062 49.34375 28.960938 49.601562 29.117188 49.773438 C 29.0625 49.863281 29.230469 50.941406 29.257812 50.949219 C 29.265625 50.949219 29.273438 50.949219 29.28125 50.949219 C 29.457031 51.636719 29.261719 52.640625 29.5625 53.265625 C 29.285156 53.667969 29.53125 53.433594 29.652344 53.761719 C 29.652344 53.761719 29.65625 53.761719 29.652344 53.757812 C 29.847656 54.046875 29.4375 54.050781 29.695312 54.351562 C 29.660156 54.433594 29.828125 54.664062 29.914062 54.683594 C 30.003906 55.070312 29.996094 55.675781 30.15625 56 C 29.933594 56.355469 30.292969 56.996094 30.085938 57.433594 C 30.097656 57.480469 30.132812 57.511719 30.191406 57.519531 C 30.175781 57.550781 30.472656 58.1875 30.550781 58.242188 C 30.550781 58.246094 30.546875 58.253906 30.546875 58.257812 C 30.457031 58.488281 30.902344 59.375 30.9375 59.410156 C 30.78125 59.550781 31.316406 59.449219 31.167969 59.339844 C 31.277344 59.433594 31.292969 59.488281 31.398438 59.363281 C 31.375 59.410156 31.386719 59.441406 31.441406 59.464844 C 31.242188 59.507812 31.507812 59.78125 31.511719 59.789062 C 31.503906 59.792969 31.496094 59.796875 31.492188 59.804688 C 31.304688 59.789062 31.5625 60.347656 31.601562 60.351562 C 31.605469 60.351562 31.609375 60.351562 31.613281 60.34375 C 32.050781 60.949219 31.917969 60.59375 31.839844 61.210938 C 31.894531 60.90625 32.273438 61.972656 31.949219 61.546875 C 31.933594 61.535156 31.914062 61.542969 31.910156 61.558594 L 31.90625 61.558594 C 31.890625 61.582031 31.886719 61.628906 31.894531 61.667969 C 31.921875 61.589844 31.746094 61.285156 31.566406 61.464844 C 31.535156 61.457031 31.707031 62.050781 31.605469 62.019531 C 31.613281 62.019531 31.621094 62.023438 31.628906 62.027344 C 31.710938 62.058594 31.722656 61.796875 31.757812 61.882812 C 31.714844 61.972656 31.761719 62.015625 31.886719 62.003906 C 31.917969 61.980469 31.941406 61.953125 31.949219 61.910156 C 31.925781 61.964844 32.140625 62.421875 32.410156 62.34375 C 32.503906 62.390625 32.589844 62.445312 32.667969 62.515625 C 32.695312 62.542969 32.714844 62.558594 32.679688 62.582031 C 32.652344 62.578125 32.203125 62.316406 32.253906 62.523438 C 32.339844 62.707031 32.464844 62.855469 32.566406 63.03125 C 32.523438 63.121094 32.6875 63.054688 32.714844 62.980469 C 32.71875 63.0625 32.734375 63.140625 32.761719 63.214844 C 32.628906 63.457031 33.160156 64.167969 33.277344 64.34375 C 33.324219 64.394531 33.472656 64.460938 33.511719 64.53125 C 33.507812 64.53125 33.5 64.539062 33.5 64.542969 C 33.570312 64.621094 33.625 64.707031 33.664062 64.808594 C 33.683594 64.820312 33.703125 64.808594 33.707031 64.796875 C 33.75 64.746094 33.792969 64.699219 33.84375 64.65625 C 33.839844 64.621094 33.789062 64.574219 33.761719 64.558594 C 33.761719 64.558594 33.765625 64.550781 33.761719 64.542969 C 34.140625 64.460938 33.609375 64.941406 33.960938 65.164062 C 34.148438 65.265625 34.328125 65.1875 34.558594 65.226562 C 34.371094 65.308594 34.777344 66.0625 34.75 65.316406 C 34.75 65.335938 34.753906 65.371094 34.753906 65.316406 C 34.734375 64.921875 34.921875 65.144531 35.054688 64.839844 C 35.097656 64.851562 35.113281 64.839844 35.101562 64.792969 C 34.953125 64.734375 34.433594 63.863281 34.433594 63.921875 C 34.453125 63.765625 34.476562 63.496094 34.394531 63.363281 C 34.574219 63.367188 34.46875 63.136719 34.507812 63.058594 C 34.527344 63.023438 34.511719 62.992188 34.488281 62.960938 C 34.472656 62.953125 34.464844 62.953125 34.449219 62.953125 C 34.167969 63.039062 34.648438 62.476562 34.59375 62.328125 C 34.601562 62.191406 34.523438 61.941406 34.269531 61.929688 C 34.242188 61.875 34.085938 61.6875 34.011719 61.648438 C 33.984375 61.640625 33.941406 61.632812 33.921875 61.628906 C 33.601562 61.5625 33.691406 61.164062 33.792969 61.027344 C 33.796875 61.023438 33.796875 61.019531 33.796875 61.015625 C 33.804688 61.011719 33.832031 60.984375 33.835938 60.984375 C 33.984375 60.832031 34.144531 60.101562 33.855469 59.90625 C 34.003906 59.898438 34.308594 59.761719 34.082031 59.679688 C 34.042969 59.734375 33.671875 59.515625 33.589844 59.417969 C 33.601562 59.363281 33.601562 59.328125 33.589844 59.292969 C 33.886719 59.1875 34.378906 58.195312 34.058594 58.125 C 34.703125 58.101562 35.199219 57.96875 35.246094 57.195312 C 35.257812 57.191406 35.265625 57.179688 35.273438 57.164062 C 35.320312 56.910156 34.769531 56.734375 34.863281 56.585938 C 34.9375 56.578125 34.96875 56.511719 34.945312 56.394531 C 34.78125 56.191406 34.125 56.152344 34.304688 55.722656 C 34.566406 55.867188 34.855469 56.214844 35.210938 56.167969 C 35.214844 56.171875 35.214844 56.171875 35.214844 56.175781 C 35.425781 56.277344 35.753906 56.191406 35.871094 55.960938 C 36.035156 55.511719 36.132812 55.246094 35.996094 54.761719 C 36.152344 54.601562 36.238281 54.214844 36.273438 54.015625 C 36.316406 53.984375 36.363281 53.960938 36.410156 53.929688 C 36.53125 54.109375 36.101562 54.550781 36.226562 54.664062 C 35.910156 55.042969 36.566406 54.636719 36.496094 54.246094 C 36.589844 54.148438 36.691406 53.644531 36.566406 53.566406 C 36.613281 53.460938 36.984375 52.730469 36.675781 52.679688 C 36.632812 51.816406 37.800781 51.308594 37.738281 50.882812 C 37.90625 50.75 37.972656 50.761719 37.925781 50.917969 C 37.929688 50.933594 37.949219 50.949219 37.96875 50.945312 C 37.972656 50.949219 37.976562 50.949219 37.980469 50.945312 C 38.246094 50.957031 38.550781 51.070312 38.496094 50.695312 C 38.992188 51.105469 39.316406 47.382812 39.203125 47.011719 C 39.226562 47 39.238281 46.984375 39.238281 46.953125 C 39.242188 46.914062 39.238281 46.871094 39.234375 46.828125 C 39.382812 46.820312 39.363281 46.679688 39.398438 46.578125 C 39.40625 46.578125 39.417969 46.578125 39.425781 46.574219 L 39.425781 46.578125 C 39.429688 46.21875 41.117188 45.0625 40.617188 44.292969 C 39.9375 43.21875 39.777344 42.738281 38.308594 42.300781 C 38.320312 42.277344 38.324219 42.25 38.308594 42.230469 C 37.984375 41.878906 37.589844 42.042969 37.410156 42.371094 C 37.414062 42.175781 36.902344 40.636719 36.296875 41.257812 C 35.953125 41.285156 35.878906 41.640625 35.417969 41.601562 C 35.414062 41.601562 35.414062 41.601562 35.414062 41.601562 C 35.390625 41.597656 35.371094 41.59375 35.351562 41.585938 C 35.351562 41.578125 35.355469 41.574219 35.351562 41.570312 C 37.128906 40.652344 35.230469 41.378906 35.011719 41.363281 C 35.015625 41.355469 35.003906 41.339844 35 41.335938 C 35.488281 40.914062 34.839844 41.316406 34.871094 41.304688 C 35.492188 40.429688 35.949219 39.996094 35.285156 38.921875 C 35.347656 38.863281 35.230469 38.675781 35.136719 38.753906 C 35.125 38.765625 35.097656 38.785156 35.09375 38.800781 C 35.082031 38.792969 35.0625 38.792969 35.042969 38.789062 C 34.980469 38.398438 34.617188 37.914062 34.128906 38.023438 C 34.128906 38.019531 34.128906 38.019531 34.128906 38.019531 C 33.953125 37.851562 33.632812 38.199219 33.441406 38.019531 C 33.589844 37.734375 33.183594 37.648438 33.015625 37.59375 C 33.160156 37.148438 33.0625 36.707031 32.457031 36.722656 C 32.648438 36.230469 31.910156 36.289062 31.898438 35.875 C 32.257812 36.074219 31.976562 35.828125 31.511719 35.757812 C 31.5 35.789062 31.496094 35.828125 31.5 35.859375 C 31.53125 35.867188 31.558594 35.886719 31.585938 35.890625 C 31.566406 35.914062 31.546875 35.933594 31.523438 35.957031 C 31.449219 35.9375 30.953125 35.917969 30.824219 35.949219 C 30.785156 35.929688 30.058594 35.671875 30.058594 35.671875 C 30.0625 35.492188 29.875 35.253906 29.703125 35.195312 C 29.703125 35.191406 29.675781 34.996094 29.667969 34.960938 C 29.609375 34.828125 29.433594 35.160156 29.585938 35.21875 C 29.585938 35.226562 29.585938 35.226562 29.585938 35.230469 C 29.523438 35.378906 28.9375 35.976562 28.742188 36.238281 C 28.222656 35.996094 29.433594 34.785156 29.054688 34.714844 C 28.925781 34.691406 28.777344 34.890625 28.789062 34.996094 C 28.300781 35.007812 28.605469 35.203125 28.128906 35.09375 C 27.996094 35.078125 28.082031 35.347656 27.988281 35.363281 C 27.96875 35.335938 27.898438 35.1875 27.835938 35.191406 C 27.734375 35.308594 27.605469 35.386719 27.457031 35.429688 C 27.421875 35.460938 27.523438 35.585938 27.484375 35.671875 C 27.492188 35.765625 27.488281 35.859375 27.484375 35.949219 C 27.476562 35.949219 27.484375 35.953125 27.488281 35.957031 C 27.484375 35.964844 27.476562 35.964844 27.46875 35.96875 C 27.398438 35.953125 27.328125 35.953125 27.253906 35.972656 C 27.171875 36.042969 27.144531 36.117188 27.046875 36.179688 C 26.894531 36.207031 26.960938 37.0625 26.878906 36.238281 C 26.828125 36.1875 26.773438 36.148438 26.707031 36.121094 L 26.707031 36.117188 C 26.855469 35.828125 26.023438 35.585938 26.023438 35.613281 C 26.019531 35.710938 25.480469 36.011719 25.441406 35.925781 C 25.433594 35.90625 25.398438 35.890625 25.382812 35.886719 C 25.332031 35.917969 25.277344 35.933594 25.21875 35.925781 C 25.066406 35.648438 25.066406 35.074219 24.882812 34.871094 C 25.070312 34.585938 24.839844 34.414062 24.933594 34.199219 C 24.964844 34.113281 25.011719 34.074219 25.085938 34.085938 C 25.265625 33.921875 25.523438 33.277344 25.5 33.03125 C 25.507812 33.03125 25.507812 33.03125 25.507812 33.03125 C 25.460938 33.078125 25.34375 32.859375 25.367188 32.792969 C 25.417969 32.589844 24.917969 32.554688 24.800781 32.476562 C 24.796875 32.46875 24.796875 32.464844 24.796875 32.460938 C 24.75 32.429688 24.730469 32.433594 24.722656 32.464844 C 24.644531 32.738281 23.601562 32.453125 23.738281 32.269531 C 24.296875 32.503906 24.242188 31.109375 24.402344 31.15625 C 24.3125 31.660156 24.839844 30.949219 24.691406 30.699219 C 24.871094 30.460938 25.03125 30.335938 25.265625 30.136719 C 25.570312 29.90625 24.566406 29.867188 24.539062 29.859375 C 23.972656 29.691406 23.503906 30.847656 23.476562 31.039062 C 23.460938 31.140625 23.0625 30.867188 22.90625 31.023438 C 21.371094 30.785156 21.714844 29.003906 22.46875 27.734375 C 22.546875 27.714844 22.574219 27.730469 22.546875 27.777344 C 22.554688 27.75 23.378906 26.769531 23.238281 26.382812 C 23.339844 26.347656 23.609375 26.347656 23.621094 26.242188 C 23.890625 26.039062 24.058594 26.085938 24.3125 25.796875 C 24.441406 25.863281 25.371094 26.261719 25.257812 26.015625 C 25.234375 25.984375 25.257812 25.976562 25.335938 25.992188 C 25.355469 26.070312 25.375 26.148438 25.410156 26.214844 C 25.429688 26.226562 25.78125 26.296875 25.839844 26.21875 C 25.851562 26.316406 25.890625 26.472656 25.953125 26.476562 C 25.957031 26.476562 25.957031 26.472656 25.960938 26.472656 C 26.167969 26.480469 26.175781 25.933594 26.027344 25.847656 C 26.171875 25.929688 26.550781 25.765625 26.691406 25.769531 C 26.730469 25.808594 27.40625 25.921875 27.378906 25.992188 C 27.238281 25.988281 27.167969 26.039062 27.347656 26.054688 C 27.347656 26.070312 27.449219 26.324219 27.460938 26.324219 C 27.605469 26.308594 27.738281 26.183594 27.894531 26.253906 C 27.894531 26.261719 27.984375 26.445312 27.984375 26.457031 C 27.851562 26.5625 27.953125 26.722656 28.027344 26.808594 C 27.730469 27.605469 27.9375 27.503906 27.855469 28.480469 C 27.851562 28.492188 27.847656 28.5 27.847656 28.511719 C 27.804688 28.679688 28.496094 27.527344 28.621094 27.148438 C 28.605469 27.355469 28.535156 27.636719 28.554688 27.589844 C 28.75 27.183594 28.949219 26.308594 29.023438 25.859375 C 29.023438 25.851562 29.023438 25.847656 29.019531 25.839844 C 29.085938 25.558594 29.894531 25.359375 29.890625 25.261719 C 30.648438 25.273438 31.695312 24.09375 31.894531 23.753906 C 31.886719 23.675781 31.863281 23.59375 31.832031 23.523438 C 32.253906 23.414062 31.945312 22.957031 32.078125 22.722656 C 32.078125 22.726562 32.195312 23.070312 32.203125 22.972656 C 32.324219 22.835938 32.433594 22.695312 32.550781 22.558594 C 32.460938 22.75 32.070312 23.3125 32.113281 23.523438 C 32.195312 23.566406 32.261719 23.527344 32.324219 23.390625 C 32.386719 23.335938 32.699219 22.910156 32.816406 22.703125 C 32.917969 22.683594 33.5625 22.125 33.601562 22.09375 C 33.761719 22.117188 34.164062 22.195312 34.300781 22.121094 C 34.308594 22.109375 34.3125 22.097656 34.320312 22.085938 C 34.308594 22.03125 34.285156 22 34.25 21.976562 C 34.671875 21.945312 35.320312 21.886719 35.195312 21.722656 C 35.128906 21.65625 35.082031 21.675781 35.058594 21.777344 C 35.015625 21.695312 35.058594 21.597656 35.015625 21.527344 C 35.171875 21.535156 35.230469 21.453125 35.1875 21.289062 C 35.414062 21.25 35.523438 21.121094 35.515625 20.882812 C 35.761719 21.25 36.085938 20.699219 36.300781 20.703125 C 36.394531 20.917969 37.519531 20.449219 37.71875 20.4375 C 37.714844 20.441406 37.707031 20.441406 37.699219 20.449219 C 37.695312 20.453125 37.652344 20.527344 37.65625 20.535156 C 37.664062 20.542969 37.664062 20.550781 37.664062 20.558594 C 37.671875 20.566406 37.683594 20.566406 37.6875 20.554688 C 37.6875 20.550781 37.691406 20.550781 37.691406 20.546875 C 37.722656 20.589844 37.695312 20.617188 37.796875 20.601562 C 37.84375 20.589844 37.859375 20.621094 37.851562 20.703125 C 37.265625 20.824219 37.125 21.058594 36.65625 21.238281 C 36.742188 21.207031 36.890625 21.359375 36.851562 21.347656 C 36.84375 21.347656 36.835938 21.351562 36.835938 21.359375 C 36.84375 21.359375 36.84375 21.363281 36.84375 21.367188 L 36.851562 21.367188 C 36.851562 21.363281 36.855469 21.359375 36.855469 21.359375 C 36.859375 21.351562 36.855469 21.351562 36.855469 21.351562 L 36.855469 21.347656 C 36.859375 21.351562 36.859375 21.351562 36.859375 21.351562 C 37.214844 21.207031 38.71875 20.890625 38.613281 20.546875 C 38.523438 20.285156 37.878906 20.578125 38.066406 19.886719 C 38.070312 19.875 38.0625 19.863281 38.054688 19.855469 C 38.046875 19.847656 37.960938 19.824219 37.945312 19.839844 C 37.953125 19.800781 38.003906 19.753906 38.019531 19.71875 C 38.035156 19.671875 38.214844 19.597656 38.238281 19.578125 C 38.246094 19.578125 38.253906 19.453125 38.0625 19.472656 C 38.0625 19.472656 38.0625 19.472656 38.058594 19.472656 C 38.035156 19.433594 38.003906 19.40625 37.957031 19.386719 C 38.089844 19.269531 38.796875 19.460938 38.714844 19.070312 C 38.011719 19.019531 37.132812 19.5 36.265625 19.515625 C 36.242188 19.285156 38.203125 18.597656 38.378906 18.441406 L 38.382812 18.445312 C 38.703125 18.25 39.511719 18.65625 39.714844 18.449219 C 40.265625 18.660156 40.488281 18.925781 40.984375 18.339844 C 41.199219 18.421875 42.023438 18.332031 42.132812 18.0625 C 42.261719 17.792969 42.785156 17.367188 42.152344 17.4375 C 42.085938 17.375 42.238281 17.292969 42.269531 17.285156 C 42.273438 17.285156 42.277344 17.28125 42.28125 17.28125 C 42.382812 17.214844 41.335938 17.367188 41.238281 17.359375 C 41.300781 17.113281 42.066406 17.066406 42.292969 17.074219 L 42.292969 17.070312 C 42.296875 17.074219 42.304688 17.074219 42.308594 17.074219 C 42.339844 17.085938 42.359375 17.058594 42.359375 17.035156 C 42.363281 17.011719 42.351562 16.984375 42.320312 16.984375 C 42.316406 16.984375 42.253906 16.96875 42.253906 16.960938 C 42.257812 16.960938 42.261719 16.953125 42.265625 16.953125 C 42.289062 16.917969 42.25 16.859375 42.207031 16.882812 C 42.203125 16.882812 42.203125 16.890625 42.199219 16.890625 C 42.195312 16.890625 42.195312 16.890625 42.195312 16.890625 C 42.3125 16.78125 41.761719 16.621094 41.753906 16.601562 L 41.753906 16.597656 C 42.058594 16.589844 41.996094 15.984375 41.761719 16.078125 C 41.761719 16.035156 42.292969 15.097656 42.371094 14.898438 C 42.390625 14.914062 42.421875 14.917969 42.453125 14.890625 C 42.460938 14.878906 42.515625 14.496094 42.542969 14.417969 C 42.585938 14.328125 42.601562 14.25 42.519531 14.15625 C 42.53125 14.105469 42.476562 14.125 42.449219 14.15625 C 42.441406 14.15625 42.425781 14.160156 42.417969 14.171875 C 42.140625 14.203125 41.898438 14.390625 41.808594 14.625 C 41.957031 14.558594 41.335938 14.8125 41.433594 14.78125 C 41.039062 14.738281 41.171875 14.761719 40.917969 14.699219 C 41.179688 14.527344 40.859375 14.511719 40.699219 14.542969 C 40.71875 14.417969 40.789062 14.367188 40.910156 14.382812 C 41.058594 14.273438 41.300781 13.980469 41.378906 13.808594 C 42.417969 13.453125 41.519531 13.554688 41.449219 13.46875 C 41.441406 13.214844 41.335938 13.027344 41.34375 12.746094 C 41.347656 12.726562 41.335938 12.710938 41.320312 12.699219 C 41.324219 12.691406 41.324219 12.675781 41.3125 12.667969 C 41.253906 12.597656 41.148438 12.652344 41.136719 12.730469 C 40.78125 12.691406 41.292969 12.542969 40.726562 12.710938 C 40.863281 12.761719 40.5 12.054688 40.199219 12.433594 C 40.039062 12.640625 39.523438 13.132812 39.652344 13.207031 C 39.410156 13.238281 39.382812 13.28125 39.421875 13.445312 C 39.421875 13.457031 39.425781 13.464844 39.425781 13.472656 C 39.425781 13.476562 39.425781 13.476562 39.421875 13.488281 C 39.375 13.824219 38.445312 13.945312 38.371094 14.730469 C 38.230469 14.78125 37.945312 15.105469 38.246094 15.042969 C 38.328125 15.128906 38.320312 15.179688 38.226562 15.183594 C 37.878906 15.144531 37.476562 15.394531 37.171875 15.539062 C 36.503906 15.769531 36.679688 16.265625 36.160156 16.519531 C 36.265625 16.519531 35.648438 17.105469 35.640625 17.105469 C 35.492188 16.921875 35.367188 17.066406 35.273438 17.222656 C 34.875 16.535156 35.804688 15.800781 36.121094 15.390625 C 36.210938 15.273438 35.199219 14.867188 35.183594 14.625 C 35.179688 14.621094 35.179688 14.621094 35.179688 14.621094 C 35.34375 14.324219 35.1875 14.09375 34.964844 13.945312 C 37.050781 12.957031 39.238281 12.203125 41.5 11.710938 C 41.539062 11.730469 41.578125 11.75 41.625 11.757812 C 41.761719 11.78125 41.734375 11.703125 41.742188 11.664062 C 41.761719 11.65625 41.785156 11.652344 41.800781 11.648438 C 41.824219 11.65625 41.855469 11.664062 41.898438 11.695312 C 41.910156 11.808594 42.066406 11.726562 42.007812 11.675781 C 42.019531 11.671875 42.023438 11.664062 42.019531 11.652344 C 42.019531 11.648438 42.019531 11.644531 42.019531 11.640625 C 42.128906 11.664062 42.175781 11.734375 42.152344 11.839844 C 42.164062 12.1875 42.929688 13.433594 42.933594 13.261719 C 42.9375 13.300781 42.96875 13.285156 43.015625 13.230469 C 43.207031 13.015625 42.894531 12.710938 42.9375 12.496094 C 42.933594 12.476562 42.941406 12.460938 42.96875 12.449219 C 43 12.589844 43.457031 12.953125 43.507812 13.089844 L 43.507812 13.082031 C 43.625 12.929688 43.984375 12.8125 44.015625 12.582031 C 44.023438 12.535156 44.117188 12.058594 44.082031 12.058594 C 44.066406 12.066406 44.054688 12.074219 44.042969 12.082031 C 44.074219 12.042969 44.09375 11.546875 44.085938 11.476562 C 44.332031 11.554688 44.355469 11.5625 44.367188 11.367188 C 44.367188 11.363281 44.390625 11.34375 44.40625 11.332031 C 44.457031 11.339844 44.785156 11.628906 44.960938 11.699219 C 44.839844 11.742188 44.65625 11.808594 44.660156 11.804688 C 44.65625 11.828125 44.644531 11.832031 44.632812 11.84375 C 44.613281 11.863281 44.71875 12.285156 44.777344 12.226562 C 44.871094 12.226562 44.960938 11.996094 45.03125 11.949219 C 45.109375 12.289062 45.34375 11.765625 45.347656 11.757812 C 45.359375 12.027344 46.28125 11.578125 45.929688 11.359375 C 45.953125 11.371094 45.503906 11.441406 45.503906 11.441406 C 45.492188 11.417969 45.46875 11.417969 45.488281 11.417969 C 45.523438 11.402344 45.539062 11.382812 45.539062 11.363281 C 45.582031 11.363281 45.621094 11.34375 45.644531 11.304688 C 45.644531 11.308594 45.648438 11.304688 45.648438 11.300781 C 45.695312 11.300781 45.691406 11.207031 45.625 11.226562 C 45.601562 11.234375 45.582031 11.238281 45.570312 11.257812 C 45.558594 11.261719 45.546875 11.265625 45.535156 11.269531 C 45.496094 11.246094 45.460938 11.246094 45.414062 11.234375 C 45.429688 11.203125 45.457031 11.179688 45.488281 11.171875 C 45.6875 11.207031 45.722656 11.171875 45.710938 11.101562 C 46.828125 11.023438 47.949219 11.003906 49.078125 11.050781 C 49.078125 11.054688 49.070312 11.054688 49.070312 11.0625 C 49.09375 11.113281 48.402344 11.109375 48.414062 11.191406 C 48.289062 11.324219 48.828125 11.285156 48.882812 11.292969 C 48.898438 11.402344 48.84375 11.425781 48.703125 11.375 C 48.675781 11.371094 48.65625 11.410156 48.683594 11.425781 C 48.691406 11.429688 48.699219 11.433594 48.707031 11.4375 C 48.699219 11.472656 48.898438 11.570312 48.789062 11.601562 L 48.789062 11.605469 C 48.582031 11.410156 48.308594 11.277344 48.054688 11.464844 C 48.050781 11.464844 48.050781 11.46875 48.050781 11.472656 L 48.046875 11.476562 C 48.035156 11.480469 48.042969 11.496094 48.054688 11.5 C 48.0625 11.507812 48.082031 11.515625 48.09375 11.507812 C 48.097656 11.503906 48.101562 11.5 48.105469 11.5 C 48.109375 11.507812 48.117188 11.515625 48.121094 11.519531 C 48.398438 11.613281 48.523438 11.472656 48.722656 11.757812 C 48.011719 11.765625 47.96875 11.515625 47.503906 12.042969 C 47.386719 12.160156 48.167969 11.972656 48.21875 11.992188 C 48.183594 12.265625 47.429688 12.097656 47.324219 12.527344 C 47.320312 12.542969 47.328125 12.566406 47.332031 12.582031 C 47.335938 12.585938 47.804688 12.4375 47.871094 12.425781 C 47.890625 12.445312 47.109375 12.824219 47.171875 12.953125 C 47.121094 12.976562 47.28125 13.007812 47.351562 12.914062 C 47.390625 12.898438 47.425781 12.890625 47.464844 12.882812 C 47.472656 12.992188 47.425781 13.050781 47.320312 13.054688 C 47.316406 13.089844 47.324219 13.109375 47.355469 13.128906 C 47.25 13.132812 47.148438 13.167969 47.0625 13.242188 C 47.050781 13.273438 47.09375 13.347656 47.09375 13.347656 C 47.070312 13.371094 47.050781 13.394531 47.023438 13.417969 C 46.992188 13.414062 46.960938 13.417969 46.9375 13.433594 C 46.871094 13.476562 46.859375 13.582031 46.949219 13.617188 C 46.898438 13.695312 46.894531 13.769531 46.949219 13.839844 C 46.921875 13.902344 46.785156 14.488281 46.867188 14.554688 C 46.882812 14.566406 46.957031 14.589844 46.988281 14.597656 C 46.988281 14.605469 46.988281 14.605469 46.988281 14.613281 C 46.84375 14.789062 47.054688 14.820312 47.21875 14.722656 C 47.492188 14.332031 47.625 15.199219 47.320312 15.074219 C 47.355469 15.152344 47.601562 14.964844 47.363281 15.167969 C 47.378906 15.234375 47.414062 15.238281 47.472656 15.175781 C 47.582031 15.15625 47.613281 15.398438 47.734375 15.238281 C 47.746094 15.222656 47.746094 15.203125 47.738281 15.191406 C 47.738281 15.183594 47.734375 15.183594 47.734375 15.179688 C 47.828125 15.03125 47.730469 15.015625 47.886719 15.0625 C 47.890625 15.066406 47.902344 15.066406 47.910156 15.066406 C 48.121094 15.152344 48.8125 14.382812 48.683594 14.148438 C 48.78125 14.144531 49.023438 14.242188 48.992188 14.074219 C 49.019531 14.074219 49.0625 14.050781 49.070312 14.027344 C 49.089844 14.027344 49.113281 14.027344 49.136719 14.023438 C 49.15625 14.015625 49.203125 13.832031 49.207031 13.816406 C 49.210938 13.804688 49.492188 13.949219 49.386719 13.785156 C 49.410156 13.777344 49.410156 13.75 49.40625 13.734375 C 49.40625 13.734375 49.761719 13.910156 49.621094 13.664062 C 49.601562 13.636719 49.609375 13.632812 49.636719 13.621094 L 49.636719 13.617188 C 49.769531 13.671875 49.902344 13.136719 49.9375 13.144531 C 50.300781 13.46875 50.179688 13.023438 50.519531 13.035156 C 50.679688 13.261719 50.703125 13.125 50.785156 13.023438 C 50.789062 13.023438 50.792969 13.023438 50.796875 13.023438 C 51.257812 12.605469 50.804688 13.03125 50.957031 13.082031 C 51.140625 13.144531 51.796875 12.929688 51.816406 12.890625 C 52.109375 12.90625 52.222656 12.664062 52.398438 12.46875 C 52.460938 12.472656 52.5625 12.460938 52.609375 12.414062 C 52.832031 12.636719 52.90625 12.1875 52.929688 12.117188 C 52.960938 11.992188 52.980469 12.101562 53.007812 12.113281 C 52.921875 12.078125 53.183594 12.574219 53.296875 12.382812 C 53.320312 12.257812 53.390625 12.226562 53.5 12.273438 C 53.539062 12.8125 55.039062 11.890625 55.261719 11.960938 C 55.28125 11.988281 55.300781 11.984375 55.316406 11.972656 C 56.363281 12.242188 57.394531 12.5625 58.425781 12.953125 C 59.71875 13.441406 60.953125 14.019531 62.132812 14.65625 C 62.125 14.667969 62.121094 14.675781 62.117188 14.683594 C 62.039062 14.707031 61.964844 14.742188 61.898438 14.796875 C 61.894531 14.78125 61.882812 14.773438 61.871094 14.769531 C 61.808594 14.75 61.761719 14.773438 61.71875 14.820312 C 61.570312 14.96875 61.371094 15.003906 61.234375 15.128906 C 61.65625 14.859375 61.171875 15.507812 60.851562 15.523438 C 60.820312 15.515625 60.703125 15.519531 60.753906 15.609375 C 60.757812 15.65625 60.796875 15.703125 60.84375 15.730469 C 60.816406 15.609375 59.640625 16.828125 59.484375 16.90625 C 59.457031 16.921875 59.375 17.050781 59.390625 17.105469 C 59.375 17.105469 59.320312 17.144531 59.320312 17.152344 C 59.289062 17.050781 58.96875 17.503906 59.398438 17.308594 C 59.449219 17.476562 58.886719 17.449219 58.761719 17.457031 C 58.707031 17.398438 58.683594 17.40625 58.671875 17.472656 C 58.6875 17.492188 58.699219 17.503906 58.699219 17.523438 C 58.695312 17.546875 58.695312 17.574219 58.6875 17.601562 C 58.628906 17.59375 58.5625 17.539062 58.496094 17.578125 C 58.484375 17.554688 58.5 17.5 58.496094 17.476562 C 58.46875 17.460938 58.457031 17.476562 58.457031 17.507812 C 58.222656 17.433594 58.65625 17.980469 58.207031 17.507812 C 58.335938 17.667969 58.082031 17.824219 57.949219 17.894531 C 57.90625 17.878906 57.859375 17.863281 57.828125 17.839844 C 57.648438 17.980469 57.933594 17.933594 57.925781 17.996094 C 57.925781 18.007812 57.929688 18.019531 57.9375 18.03125 C 57.625 18.105469 57.800781 18.359375 57.832031 18.320312 C 57.898438 18.332031 57.957031 18.332031 58.015625 18.332031 C 57.636719 18.339844 57.300781 18.578125 57.890625 18.710938 C 57.824219 18.867188 57.253906 19.058594 57.492188 19.226562 C 57.507812 19.234375 57.523438 19.238281 57.535156 19.246094 C 57.535156 19.347656 57.488281 19.394531 57.386719 19.382812 C 57.488281 19.429688 57.765625 20.433594 58.335938 19.675781 C 58.335938 19.632812 58.34375 19.589844 58.367188 19.546875 C 58.40625 19.53125 58.4375 19.503906 58.46875 19.46875 C 58.484375 19.5 58.503906 19.515625 58.535156 19.523438 C 58.765625 19.617188 58.726562 19.214844 58.796875 19.175781 C 58.816406 19.46875 58.757812 21.144531 59.015625 21.296875 C 59.457031 21.5625 60.867188 19.46875 60.945312 19.277344 C 60.976562 19.179688 60.789062 19.183594 60.726562 19.136719 C 60.75 19.105469 60.765625 19.074219 60.769531 19.035156 L 60.78125 19.027344 C 60.691406 19.105469 60.773438 18.140625 60.773438 18.046875 C 60.773438 18.234375 61.902344 17.027344 61.960938 16.953125 C 62.003906 16.96875 62.242188 16.660156 62.222656 16.636719 C 62.226562 16.640625 62.226562 16.644531 62.230469 16.648438 C 62.230469 16.640625 62.226562 16.636719 62.226562 16.628906 C 62.460938 16.613281 62.625 16.773438 62.878906 16.628906 C 62.882812 16.640625 62.890625 16.652344 62.902344 16.652344 C 63.414062 16.789062 62.289062 17.566406 62.144531 17.621094 C 62.109375 17.609375 62.058594 17.636719 62.039062 17.664062 C 61.683594 18.085938 61.847656 18.527344 61.515625 18.929688 C 61.53125 19.027344 61.613281 19.066406 61.769531 19.046875 C 61.773438 19.046875 61.78125 19.046875 61.789062 19.035156 C 61.792969 19.066406 61.78125 19.078125 61.773438 19.101562 C 61.789062 19.191406 61.859375 19.230469 61.984375 19.21875 C 61.996094 19.222656 62.011719 19.214844 62.023438 19.207031 C 61.835938 19.539062 62.40625 19.445312 62.40625 19.390625 C 62.761719 19.300781 63.109375 19.269531 63.445312 19.167969 C 63.210938 19.503906 63.6875 19.199219 63.273438 19.613281 C 63.261719 19.609375 63.246094 19.609375 63.234375 19.613281 C 63.230469 19.613281 63.226562 19.617188 63.21875 19.621094 C 63.195312 19.578125 63.15625 19.605469 63.113281 19.699219 C 62.832031 19.566406 61.605469 19.746094 62.0625 20 C 62.066406 20 62.070312 20 62.078125 20.003906 C 61.894531 20.03125 62.003906 20.347656 62.179688 20.292969 C 62.125 20.4375 62.0625 20.582031 61.992188 20.71875 C 61.941406 20.710938 61.894531 20.699219 61.847656 20.695312 C 61.847656 20.679688 61.839844 20.671875 61.835938 20.664062 C 61.921875 20.550781 61.789062 20.5 61.683594 20.511719 C 61.664062 20.496094 61.65625 20.476562 61.664062 20.460938 C 61.660156 20.457031 61.660156 20.460938 61.660156 20.460938 C 61.636719 20.386719 61.605469 20.371094 61.578125 20.402344 C 61.574219 20.402344 61.566406 20.402344 61.5625 20.410156 C 61.023438 20.582031 61.265625 21.238281 61.117188 21.601562 C 61.027344 21.582031 61.007812 21.542969 61.066406 21.492188 C 61.167969 21.285156 60.953125 21.226562 60.898438 21.582031 C 60.921875 21.574219 60.578125 21.519531 60.574219 21.617188 C 60.566406 21.792969 60.757812 21.960938 60.40625 21.871094 C 60.351562 21.855469 60.328125 21.726562 60.328125 21.6875 C 60.324219 21.695312 60.285156 21.707031 60.285156 21.707031 C 60.316406 21.683594 60.179688 21.625 60.1875 21.628906 C 60.15625 21.59375 59.128906 21.871094 59.136719 21.917969 C 59.136719 21.945312 59.140625 21.984375 59.140625 22.023438 C 59.152344 22.09375 59.121094 22.140625 59.046875 22.164062 C 59.144531 21.589844 58.433594 21.75 58.15625 21.644531 C 57.457031 21.597656 58.421875 20.828125 58.421875 20.84375 C 58.394531 20.609375 58.484375 20.386719 58.492188 20.171875 C 58.492188 20.164062 58.492188 20.164062 58.492188 20.15625 C 58.496094 20.117188 58.441406 20.085938 58.40625 20.113281 C 57.972656 20.265625 57.273438 21.25 57.558594 21.761719 C 57.53125 21.789062 57.515625 21.824219 57.503906 21.863281 C 57.25 21.902344 57.222656 21.839844 56.964844 21.976562 C 56.933594 21.960938 56.90625 21.949219 56.875 21.9375 C 56.835938 21.867188 56.632812 21.839844 56.671875 21.960938 C 56.679688 21.972656 56.679688 21.984375 56.679688 21.992188 C 56.667969 21.996094 56.65625 22 56.644531 22.011719 C 56.539062 22.070312 56.519531 22.132812 56.527344 22.1875 C 56.515625 22.175781 56.511719 22.164062 56.496094 22.148438 C 56.527344 22.609375 54.582031 23.464844 54.234375 23.464844 C 54.230469 23.460938 54.226562 23.453125 54.222656 23.445312 C 54.164062 23.523438 54.105469 23.605469 54.03125 23.707031 C 54.011719 23.722656 53.996094 23.742188 53.984375 23.761719 C 53.867188 23.746094 53.484375 23.613281 53.453125 23.660156 C 53.429688 23.691406 53.421875 23.707031 53.417969 23.722656 C 53.339844 23.707031 53.09375 23.613281 53.066406 23.769531 C 52.992188 24.046875 53.429688 24.378906 53.695312 24.433594 C 53.570312 24.546875 53.539062 24.777344 53.722656 24.824219 C 53.714844 24.933594 53.628906 25.074219 53.714844 25.175781 C 53.703125 25.179688 53.6875 25.1875 53.675781 25.195312 C 53.398438 25.414062 53.5625 26.175781 52.9375 26.101562 C 52.855469 25.898438 51.324219 25.667969 51.339844 25.914062 C 51.28125 26.007812 51.015625 25.972656 50.953125 26.015625 C 50.925781 26.09375 51.144531 26.996094 50.777344 27.183594 C 50.777344 27.183594 50.328125 27.707031 50.332031 27.691406 C 50.335938 27.664062 50.445312 28.761719 50.355469 28.660156 C 50.394531 28.710938 50.988281 28.710938 51.085938 28.71875 C 51.085938 28.871094 51.085938 28.988281 51.144531 29.136719 C 51.074219 28.976562 53.035156 28.957031 52.960938 28.484375 C 52.960938 28.476562 52.957031 28.476562 52.953125 28.476562 C 53.039062 28.367188 53.144531 28.285156 53.277344 28.242188 C 53.265625 28.101562 53.230469 27.96875 53.171875 27.835938 C 53.289062 27.75 53.90625 27.425781 53.761719 27.269531 C 53.742188 27.3125 54.636719 27.074219 54.546875 27.042969 C 54.570312 27.042969 54.902344 26.328125 55.007812 26.261719 L 55.011719 26.261719 C 55.011719 26.300781 55.003906 26.34375 55.035156 26.375 C 55.144531 26.507812 55.195312 26.277344 55.351562 26.429688 C 55.492188 26.578125 56.167969 26.558594 56.285156 26.386719 C 56.339844 26.300781 56.402344 26.214844 56.460938 26.132812 C 56.488281 26.121094 56.515625 26.117188 56.542969 26.101562 C 56.570312 26.167969 56.621094 26.191406 56.699219 26.183594 C 57.195312 26.738281 57.195312 27.449219 57.882812 27.859375 C 58.535156 28.25 57.820312 28.613281 57.980469 29.042969 C 57.976562 29.042969 57.972656 29.046875 57.960938 29.050781 C 57.957031 29.054688 57.949219 29.066406 57.953125 29.078125 C 57.9375 29.019531 58.894531 28.667969 58.492188 28.101562 C 58.726562 27.996094 58.929688 28.484375 58.96875 28.382812 C 59.027344 28.164062 57.636719 25.910156 57.5625 25.789062 C 57.714844 25.738281 57.875 25.699219 58.039062 25.683594 C 57.539062 25.984375 58.433594 25.960938 58.378906 25.875 C 58.34375 26.597656 58.910156 26.5 58.972656 26.941406 C 58.933594 26.953125 58.890625 26.941406 58.867188 26.957031 C 59.046875 27.0625 59.378906 27.949219 59.34375 27.890625 C 59.105469 28.03125 59.433594 28.679688 59.585938 28.769531 C 59.648438 28.800781 59.726562 28.816406 59.808594 28.820312 C 59.738281 28.859375 59.757812 28.820312 59.648438 28.863281 C 59.507812 28.902344 60.257812 29.292969 60.226562 29.148438 C 60.277344 29.40625 59.671875 29.03125 59.742188 29.257812 C 59.753906 29.285156 59.832031 29.414062 59.78125 29.457031 C 59.777344 29.457031 59.78125 29.457031 59.777344 29.460938 C 59.777344 29.460938 59.773438 29.460938 59.769531 29.464844 C 59.675781 29.527344 59.941406 29.859375 59.933594 29.910156 C 59.941406 29.929688 59.960938 29.945312 59.976562 29.953125 C 59.984375 29.957031 59.988281 29.953125 59.992188 29.949219 C 59.992188 29.945312 59.992188 29.941406 59.996094 29.9375 C 59.996094 29.933594 59.996094 29.9375 59.996094 29.9375 C 60.089844 29.832031 59.957031 29.800781 60.128906 29.929688 C 60.246094 30.007812 60.160156 29.53125 60.140625 29.492188 C 60.148438 29.492188 60.15625 29.488281 60.164062 29.488281 C 60.214844 29.570312 60.261719 29.574219 60.3125 29.5 C 60.300781 29.464844 60.289062 29.4375 60.261719 29.40625 C 60.269531 29.394531 60.277344 29.394531 60.285156 29.386719 C 60.394531 29.449219 60.472656 29.425781 60.511719 29.328125 C 60.800781 29.351562 60.503906 28.964844 60.273438 28.964844 C 60.257812 28.949219 60.242188 28.933594 60.226562 28.917969 C 60.28125 28.851562 60.300781 28.769531 60.296875 28.6875 C 60.195312 28.679688 60.265625 28.050781 60.425781 28.355469 C 60.425781 28.363281 60.425781 28.363281 60.425781 28.371094 C 60.40625 28.417969 60.417969 28.445312 60.46875 28.457031 C 60.480469 28.457031 60.484375 28.449219 60.488281 28.445312 C 60.492188 28.433594 60.496094 28.429688 60.507812 28.429688 C 60.519531 28.402344 60.515625 28.378906 60.507812 28.347656 C 60.515625 28.328125 60.527344 28.3125 60.542969 28.316406 C 60.574219 28.445312 60.59375 28.386719 60.660156 28.398438 L 60.667969 28.398438 C 60.679688 28.378906 60.675781 28.355469 60.660156 28.332031 C 60.675781 28.320312 60.6875 28.300781 60.683594 28.300781 C 60.683594 28.296875 60.683594 28.292969 60.679688 28.292969 C 60.695312 28.308594 60.71875 28.320312 60.742188 28.328125 C 61.007812 28.546875 60.84375 28.203125 60.769531 28.199219 C 60.765625 28.199219 60.753906 28.203125 60.753906 28.203125 C 60.75 28.15625 60.75 28.113281 60.746094 28.070312 C 60.902344 28.140625 61.308594 28.144531 61.457031 28.113281 C 61.195312 29.003906 62.707031 26.871094 62.097656 26.964844 C 62.042969 26.863281 62.703125 26.136719 62.660156 26.101562 C 62.6875 26.078125 62.710938 26.054688 62.710938 26.019531 C 62.710938 25.984375 62.703125 25.945312 62.695312 25.914062 C 62.8125 25.902344 63.359375 25.609375 63.398438 25.492188 C 63.601562 25.730469 63.628906 25.707031 63.933594 26 C 63.761719 26.015625 63.59375 26.117188 63.429688 26.175781 C 63.308594 26.21875 63.886719 26.519531 63.816406 26.574219 C 63.804688 26.585938 64.5625 26.503906 64.648438 26.382812 C 64.664062 26.355469 64.640625 26.320312 64.609375 26.332031 C 64.59375 26.339844 64.578125 26.347656 64.566406 26.347656 C 64.566406 26.347656 64.566406 26.347656 64.5625 26.347656 C 64.445312 26.253906 64.230469 26.332031 64.117188 26.230469 C 64.074219 26.15625 64.050781 26.085938 64.039062 26 C 64.050781 25.992188 64.054688 25.984375 64.058594 25.96875 C 64.0625 25.867188 65.167969 25.628906 65.332031 25.566406 C 65.398438 25.601562 65.46875 25.605469 65.546875 25.574219 C 65.542969 25.605469 65.542969 25.683594 65.558594 25.71875 C 65.527344 25.753906 65.496094 25.757812 65.453125 25.734375 C 65.390625 25.738281 65.351562 25.765625 65.304688 25.796875 C 65.238281 25.839844 65.226562 25.851562 65.140625 25.851562 C 65.117188 25.851562 65.105469 25.882812 65.136719 25.890625 C 65.164062 25.898438 65.171875 25.9375 65.203125 25.9375 C 65.21875 25.976562 65.238281 26.015625 65.257812 26.046875 C 65.257812 26.085938 65.234375 26.097656 65.203125 26.117188 C 65.164062 26.085938 65.113281 26.09375 65.070312 26.132812 C 64.636719 26.628906 64.984375 26.292969 65.097656 26.757812 C 65.125 26.820312 65.167969 26.867188 65.234375 26.902344 C 65.21875 26.917969 65.992188 27.84375 65.957031 28.144531 C 65.394531 28.417969 64.542969 27.835938 64.296875 27.960938 C 64.292969 27.960938 64.292969 27.960938 64.292969 27.960938 C 64.152344 27.90625 64.230469 27.898438 64.070312 27.875 C 64.074219 27.875 64.097656 27.742188 64.09375 27.71875 C 64.089844 27.707031 64.074219 27.691406 64.058594 27.695312 C 64.128906 27.683594 63.886719 27.789062 63.867188 27.804688 C 63.503906 27.613281 62.667969 27.90625 62.253906 27.929688 C 62.226562 27.929688 61.371094 28.570312 61.257812 28.679688 C 61.207031 28.777344 61.558594 28.765625 61.507812 29.011719 C 61.390625 29.019531 61.308594 29.0625 61.25 29.15625 C 61.257812 29.179688 61.261719 29.203125 61.261719 29.226562 C 61.203125 29.484375 61.660156 29.9375 61.859375 29.957031 C 61.859375 29.960938 61.863281 29.964844 61.863281 29.96875 C 61.886719 30 62.160156 30.335938 62.246094 30.109375 C 62.34375 29.800781 62.636719 29.953125 62.792969 30.117188 C 62.792969 30.121094 62.800781 30.121094 62.800781 30.121094 C 62.933594 30.355469 63.960938 30.265625 63.992188 30.160156 C 63.972656 30.222656 63.800781 30.652344 63.808594 30.6875 C 63.839844 30.851562 63.859375 30.988281 63.84375 31.148438 C 63.421875 31.375 63.617188 32.238281 63.246094 32.394531 C 63.304688 32.398438 62.6875 32.347656 62.683594 32.351562 C 62.675781 32.398438 62.675781 32.429688 62.679688 32.476562 C 62.664062 32.367188 62.359375 31.886719 62.1875 32.175781 C 62.175781 32.191406 62.164062 32.203125 62.160156 32.222656 C 62.226562 32.035156 61.605469 32.222656 61.546875 32.316406 C 61.25 32.175781 60.921875 32.027344 60.597656 32.089844 C 59.578125 31.3125 59.523438 31.898438 58.859375 31.972656 C 58.859375 32.121094 58.847656 32.261719 58.835938 32.40625 C 58.726562 32.46875 58.613281 32.484375 58.484375 32.460938 C 58.484375 32.441406 58.484375 32.421875 58.46875 32.402344 C 58.433594 32.351562 58.378906 32.351562 58.328125 32.335938 C 58.246094 31.667969 56.964844 31.261719 56.402344 31.101562 C 56.296875 31.003906 56.222656 30.886719 56.199219 30.746094 C 56.113281 30.386719 56.53125 29.859375 56.574219 29.34375 C 56.480469 29.210938 56.335938 29.167969 56.125 29.226562 C 56.109375 29.214844 56.101562 29.203125 56.082031 29.1875 C 56.078125 29.175781 56.0625 29.175781 56.0625 29.1875 C 56.066406 29.191406 56.066406 29.191406 56.0625 29.195312 C 55.238281 29.042969 54.152344 29.101562 53.355469 29.179688 C 52.582031 29.078125 48.792969 29.863281 49.308594 31.367188 C 48.992188 31.671875 45.707031 35.421875 45.886719 35.417969 C 45.902344 35.414062 45.917969 35.414062 45.933594 35.414062 C 45.933594 35.417969 45.933594 35.417969 45.9375 35.421875 C 46.640625 35.9375 44.882812 38.3125 45.550781 39.15625 C 46.195312 39.976562 46.40625 41.484375 47.4375 42.109375 C 47.441406 42.109375 47.445312 42.109375 47.449219 42.109375 C 47.832031 43.011719 51.339844 42.371094 52.273438 42.085938 C 52.578125 42.335938 52.972656 43.722656 53.589844 42.8125 C 53.621094 43.003906 53.667969 43.261719 53.882812 43.308594 C 54.019531 43.277344 54.03125 43.328125 53.910156 43.46875 C 53.886719 43.523438 53.824219 44.507812 53.742188 44.488281 C 53.8125 44.644531 53.253906 45.972656 53.765625 46.042969 C 53.90625 46.257812 54.558594 48.128906 54.757812 48.1875 C 54.828125 48.347656 54.929688 49.863281 54.894531 50.035156 C 54.535156 50.710938 54.152344 51.0625 54.1875 51.878906 C 54.113281 51.816406 54.046875 51.929688 54.121094 52.003906 C 54.144531 52.09375 54.058594 52.347656 54.203125 52.394531 C 54.4375 53.128906 54.851562 53.851562 55.164062 54.523438 C 54.636719 55.492188 56.875 59.3125 56.4375 59.578125 C 56.601562 59.632812 57.644531 60.066406 57.800781 59.644531 C 58.070312 59.917969 59.160156 59.261719 59.152344 58.949219 C 59.152344 58.941406 59.148438 58.941406 59.144531 58.941406 C 59.21875 58.777344 60.859375 56.082031 60.546875 56.253906 C 60.855469 56.082031 62.734375 54.449219 61.339844 54.035156 C 61.234375 53.714844 61.316406 53.574219 61.59375 53.613281 C 62.738281 52.710938 63.382812 52.332031 63.476562 50.726562 C 63.542969 49.554688 63.113281 48.546875 63.570312 47.53125 C 63.628906 47.386719 63.605469 47.265625 63.585938 47.132812 C 63.621094 47.144531 65.632812 44.992188 66.023438 44.679688 C 66.460938 44.324219 67.183594 41.910156 67.734375 41.765625 C 67.816406 41.816406 67.808594 41.140625 67.667969 41.101562 C 67.660156 41.097656 67.652344 41.089844 67.644531 41.089844 C 67.621094 41.097656 67.597656 41.101562 67.566406 41.089844 C 67.558594 41.089844 67.550781 41.101562 67.546875 41.109375 C 67.242188 41.160156 66.519531 41.46875 66.3125 41.4375 C 66.246094 41.335938 66.03125 41.308594 65.921875 41.382812 C 65.792969 41.476562 65.164062 41.054688 65.089844 40.925781 C 65.40625 40.527344 65.417969 40.097656 64.820312 39.710938 C 64.820312 39.503906 63.742188 37.910156 63.808594 37.894531 C 63.394531 37.527344 63.941406 36.335938 63.402344 36.074219 C 63.351562 35.984375 63.3125 35.886719 63.277344 35.78125 C 63.609375 35.695312 62.386719 33.425781 62.601562 33.117188 C 62.683594 33.410156 62.824219 33.671875 63.015625 33.914062 C 63.0625 33.964844 63.171875 33.339844 63.367188 33.324219 C 63.40625 33.621094 63.246094 34.382812 63.734375 34.53125 C 63.738281 34.53125 63.742188 34.53125 63.742188 34.53125 C 63.839844 34.824219 63.863281 34.957031 63.878906 35.242188 C 63.886719 35.621094 64.773438 36.210938 64.246094 36.546875 C 64.238281 36.550781 64.238281 36.558594 64.238281 36.5625 C 64.238281 36.566406 64.230469 36.566406 64.238281 36.574219 C 64.199219 36.777344 64.914062 38.273438 65.144531 38.511719 C 65.144531 38.519531 65.140625 38.523438 65.144531 38.523438 C 65.183594 38.722656 65.164062 39.292969 65.199219 39.402344 C 65.21875 39.601562 65.433594 40.730469 65.796875 40.433594 C 66.640625 40.390625 69.324219 39.222656 69.558594 38.730469 C 69.820312 38.332031 69.894531 38.203125 70.070312 37.726562 C 70.09375 37.664062 70.753906 37.253906 70.644531 37.097656 C 70.996094 36.296875 69.015625 36.011719 69.589844 35.117188 C 69.589844 35.125 69.339844 35.4375 69.339844 35.425781 C 69.335938 35.441406 69.335938 35.449219 69.335938 35.464844 C 69.144531 35.78125 68.460938 36.40625 68.148438 35.835938 C 68.195312 35.605469 68.367188 35.347656 68.207031 35.125 C 67.96875 35.097656 67.890625 35.210938 67.964844 35.46875 C 67.949219 35.480469 67.941406 35.496094 67.933594 35.511719 C 67.722656 35.03125 67.433594 34.125 67.339844 33.601562 C 67.414062 33.542969 67.453125 33.464844 67.453125 33.375 C 67.453125 33.371094 67.980469 33.484375 68.109375 33.570312 C 68.105469 33.570312 68.101562 33.570312 68.101562 33.582031 C 67.851562 34.160156 68.886719 35.164062 69.417969 34.886719 C 69.417969 34.886719 69.417969 34.886719 69.417969 34.878906 C 69.503906 34.890625 69.679688 34.824219 69.730469 34.757812 C 70.078125 34.878906 69.792969 35.339844 69.933594 35.410156 C 70.1875 35.53125 71.488281 35.960938 71.839844 35.8125 C 72.5625 35.503906 73.015625 36.171875 73.410156 36.539062 C 73.398438 36.550781 73.390625 36.566406 73.382812 36.574219 C 73.246094 36.703125 73.765625 37.007812 73.882812 37.003906 C 73.886719 37.042969 73.890625 37.078125 73.894531 37.117188 C 73.894531 37.117188 73.535156 37.09375 73.585938 37.167969 C 73.621094 37.261719 73.660156 37.355469 73.703125 37.449219 C 74.53125 37.875 74.398438 37.199219 74.773438 37.253906 C 74.777344 37.277344 74.785156 37.300781 74.792969 37.324219 C 74.765625 37.335938 74.753906 37.363281 74.761719 37.394531 C 74.722656 37.578125 74.839844 37.875 74.773438 38.167969 C 74.582031 38.746094 74.957031 40.433594 75.289062 40.996094 C 75.289062 41.003906 75.296875 41.007812 75.300781 41.011719 C 75.300781 41.035156 75.308594 41.054688 75.316406 41.078125 C 75.304688 41.085938 75.300781 41.089844 75.300781 41.105469 C 75.296875 41.285156 75.632812 41.746094 75.703125 41.964844 C 75.699219 41.964844 75.695312 41.964844 75.699219 41.96875 C 75.597656 42.503906 76.5 44.03125 76.796875 42.984375 C 76.796875 42.984375 76.796875 42.984375 76.792969 42.984375 C 76.9375 42.980469 76.867188 42.675781 76.859375 42.648438 C 77.035156 42.347656 76.964844 42.179688 77.144531 41.8125 C 77.226562 41.726562 77.300781 41.628906 77.316406 41.5 C 77.308594 41.613281 77.363281 40.234375 77.40625 40.339844 C 77.652344 40.191406 77.636719 40.3125 77.777344 40.207031 C 77.8125 41.363281 77.769531 42.527344 77.664062 43.691406 C 77.589844 43.292969 77.417969 42.652344 77.148438 42.734375 C 77.078125 42.726562 76.5625 44.273438 77.191406 44.300781 C 77.234375 44.433594 77.496094 44.3125 77.625 44.164062 C 77.359375 46.644531 76.78125 49.136719 75.859375 51.574219 C 70.015625 67.03125 52.691406 74.847656 37.234375 69.007812 Z M 33.058594 20.402344 C 33.050781 20.394531 33.050781 20.394531 33.058594 20.402344 Z M 33.074219 20.417969 C 33.121094 20.464844 33.8125 20.527344 33.925781 20.480469 C 33.898438 20.4375 31.722656 21.328125 31.183594 21.183594 C 31.179688 21.132812 31.175781 21.078125 31.179688 21.03125 C 31.359375 21.0625 32.164062 20.921875 32.277344 20.867188 C 32.382812 20.8125 32.488281 20.769531 32.609375 20.742188 C 32.519531 20.835938 32.882812 20.820312 32.714844 20.761719 C 32.726562 20.757812 32.730469 20.742188 32.722656 20.730469 L 32.722656 20.726562 C 32.777344 20.53125 32.890625 20.425781 33.074219 20.417969 Z M 32.382812 18.792969 C 32.363281 18.917969 33.039062 19.386719 33.164062 19.339844 C 33.210938 19.308594 33.25 19.328125 33.269531 19.402344 C 33.085938 19.621094 33.183594 19.730469 33.15625 19.980469 C 33.113281 19.96875 32.84375 20.007812 32.984375 20.070312 C 32.984375 20.070312 32.984375 20.078125 32.984375 20.082031 C 32.957031 20.195312 32.703125 19.644531 32.679688 19.703125 C 32.566406 19.960938 32.230469 20.523438 31.894531 20.558594 C 31.898438 20.550781 31.898438 20.542969 31.902344 20.535156 C 31.90625 20.53125 31.910156 20.527344 31.910156 20.527344 C 32.171875 20.234375 31.769531 20.25 31.710938 20.140625 C 31.796875 20.300781 32.671875 19.105469 31.980469 19.238281 C 31.15625 19.359375 31.136719 20.195312 30.570312 20.574219 C 30.683594 20.574219 29.765625 21.066406 29.957031 20.644531 C 29.957031 20.644531 29.957031 20.644531 29.960938 20.644531 C 30.125 20.488281 30.988281 19.449219 30.90625 19.335938 C 31.214844 19.082031 31.222656 18.902344 31.53125 19.109375 C 31.574219 19.136719 32.386719 19.003906 32.480469 19.121094 C 32.265625 18.859375 31.335938 18.703125 31.476562 18.421875 C 32.269531 18.007812 30.382812 18.296875 30.449219 18.25 C 30.464844 18.238281 30.464844 18.222656 30.464844 18.207031 C 30.558594 18.164062 31.882812 17.609375 31.898438 17.769531 C 31.914062 17.757812 31.933594 17.746094 31.949219 17.738281 C 31.964844 17.816406 32.078125 17.800781 32.066406 17.722656 C 32.09375 17.597656 32.152344 17.476562 32.242188 17.378906 C 32.246094 17.359375 32.238281 17.339844 32.226562 17.332031 C 31.945312 17.15625 32.964844 16.78125 32.550781 17.324219 C 32.078125 17.570312 32.339844 17.542969 32.398438 17.839844 C 32.402344 17.859375 32.414062 17.871094 32.429688 17.886719 C 32.472656 17.980469 32.636719 18.402344 32.621094 18.417969 C 32.59375 18.425781 32.394531 18.75 32.386719 18.773438 C 32.386719 18.78125 32.386719 18.789062 32.382812 18.792969 Z M 66.050781 17.839844 C 65.667969 18.007812 65.21875 16.953125 65.050781 16.457031 C 65.4375 16.726562 65.8125 17.003906 66.175781 17.292969 C 65.941406 17.222656 65.734375 17.175781 65.742188 17.226562 C 65.746094 17.300781 66.070312 17.828125 66.050781 17.839844 Z M 67.597656 27.359375 C 67.605469 27.351562 67.613281 27.347656 67.625 27.339844 C 67.738281 27.234375 67.675781 26.574219 68.015625 26.285156 C 68.140625 26.292969 68.980469 25.558594 69.109375 26.085938 C 69.179688 26.335938 69.011719 26.457031 69.050781 26.640625 C 68.996094 26.6875 68.398438 26.917969 68.378906 27.03125 C 68.34375 27.320312 68.539062 27.753906 68.8125 27.875 C 68.835938 28.101562 68.851562 28.316406 68.859375 28.539062 C 68.875 28.566406 68.910156 28.570312 68.933594 28.546875 C 69 28.457031 68.96875 28.320312 68.964844 28.195312 C 69.148438 28.023438 69.492188 28.777344 69.449219 28.824219 C 69.328125 28.808594 69.070312 28.695312 68.953125 28.730469 C 68.941406 28.714844 68.933594 28.703125 68.921875 28.710938 L 68.917969 28.710938 C 68.914062 28.714844 68.90625 28.722656 68.910156 28.726562 C 68.886719 29.285156 69.339844 29.617188 69.164062 30.507812 C 69.148438 30.503906 69.109375 30.507812 69.082031 30.507812 C 69.089844 30.539062 68.296875 30.621094 68.175781 30.261719 C 68.210938 30.160156 67.773438 29.644531 67.808594 29.414062 C 68.800781 29.730469 67.601562 27.511719 67.597656 27.359375 Z M 58.832031 11.875 C 42.785156 5.8125 24.796875 13.929688 18.726562 29.976562 C 12.660156 46.023438 20.78125 64.015625 36.828125 70.082031 C 52.878906 76.152344 70.867188 68.03125 76.9375 51.984375 C 83.003906 35.933594 74.886719 17.945312 58.832031 11.875 " fill-opacity="1" fill-rule="nonzero"/><path fill="#5e696f" d="M 36.589844 66.097656 C 36.605469 66.105469 36.617188 66.113281 36.632812 66.121094 C 36.671875 66.121094 36.597656 66.097656 36.589844 66.097656 " fill-opacity="1" fill-rule="nonzero"/><path fill="#5e696f" d="M 36.589844 66.097656 C 36.246094 65.949219 35.953125 65.734375 35.617188 65.585938 C 35.585938 65.355469 35.308594 65.117188 35.0625 65.074219 C 34.9375 65.371094 34.953125 65.105469 35.09375 65.613281 C 35.09375 65.617188 35.09375 65.617188 35.09375 65.617188 C 35 65.691406 35.472656 65.890625 35.519531 65.949219 C 35.359375 65.972656 34.84375 66.042969 34.75 66.003906 C 34.773438 66.011719 34.804688 66.019531 34.839844 66.019531 C 34.875 66.117188 35.253906 66.121094 35.347656 66.074219 L 35.351562 66.066406 C 35.617188 66.242188 37.019531 66.121094 36.632812 66.121094 C 36.597656 66.105469 36.589844 66.101562 36.589844 66.097656 " fill-opacity="1" fill-rule="nonzero"/><path fill="#5e696f" d="M 35.058594 65.074219 C 35.0625 65.074219 35.0625 65.074219 35.0625 65.074219 C 35.070312 65.0625 35.078125 65.054688 35.082031 65.039062 C 35.078125 65.046875 35.066406 65.0625 35.058594 65.074219 " fill-opacity="1" fill-rule="nonzero"/><path fill="#5e696f" d="M 41.734375 20.082031 C 41.785156 20.0625 41.753906 19.996094 41.703125 20.011719 C 41.664062 20.023438 41.628906 20.046875 41.601562 20.074219 C 41.597656 20.070312 41.59375 20.070312 41.589844 20.074219 C 41.335938 20.214844 41.445312 20.171875 41.53125 19.925781 C 41.992188 19.808594 41.570312 19.824219 41.480469 19.878906 C 41.289062 19.792969 41.863281 19.59375 41.808594 19.476562 C 41.605469 19.046875 41.359375 19.664062 41.191406 19.496094 C 41.1875 19.492188 41.1875 19.492188 41.179688 19.488281 C 41.226562 19.40625 41.425781 19.339844 41.273438 19.234375 C 41.308594 19.230469 41.347656 19.210938 41.371094 19.179688 C 41.421875 19.199219 41.519531 19.097656 41.46875 19.09375 C 41.457031 19.089844 41.441406 19.09375 41.4375 19.097656 C 41.402344 19.015625 41.1875 19.066406 41.109375 19.101562 C 41.203125 18.960938 41.808594 18.671875 41.792969 18.566406 C 41.789062 18.542969 41.769531 18.53125 41.761719 18.519531 C 41.765625 18.5 41.777344 18.480469 41.792969 18.464844 C 41.828125 18.460938 40.976562 19.027344 40.578125 19.335938 C 40.3125 19.308594 39.730469 19.652344 39.851562 19.851562 C 39.832031 20.15625 40.757812 19.972656 40.820312 20 C 40.734375 20.164062 40.765625 20.140625 41.007812 20.117188 C 41.011719 20.125 41.011719 20.128906 41.011719 20.132812 C 40.949219 20.15625 40.609375 20.300781 40.613281 20.339844 C 40.640625 20.558594 41.222656 20.105469 41.25 20.203125 C 41.179688 20.265625 41.109375 20.535156 41.136719 20.496094 C 41.140625 20.484375 41.148438 20.476562 41.15625 20.472656 C 41.222656 20.496094 41.835938 20.820312 41.640625 20.140625 C 41.671875 20.117188 41.699219 20.101562 41.734375 20.082031 " fill-opacity="1" fill-rule="nonzero"/><path fill="#5e696f" d="M 28.804688 30.847656 C 28.867188 30.523438 27.335938 29.488281 27.367188 29.414062 C 27.113281 29.449219 25.96875 29.417969 26.023438 29.816406 C 26.023438 29.816406 26.019531 29.8125 26.015625 29.816406 C 25.90625 29.914062 26.230469 29.976562 26.246094 29.808594 C 26.597656 29.796875 26.75 29.75 27.0625 29.652344 C 27.472656 29.8125 26.785156 29.765625 27.097656 29.882812 C 26.988281 30.054688 27.332031 29.886719 27.328125 29.890625 C 27.347656 30.019531 27.417969 30.082031 27.539062 30.09375 C 27.582031 30.191406 27.816406 30.296875 27.933594 30.300781 C 27.949219 30.316406 27.957031 30.324219 27.964844 30.335938 C 27.925781 30.589844 28.59375 31.085938 27.957031 31.171875 C 27.992188 31.21875 28.671875 31.300781 28.75 31.242188 C 28.789062 31.207031 28.808594 31.164062 28.851562 31.144531 C 28.867188 31.28125 29.042969 31.195312 29.113281 31.140625 C 29.113281 31.144531 29.117188 31.148438 29.121094 31.152344 C 29.035156 31.019531 29.195312 30.957031 28.804688 30.847656 " fill-opacity="1" fill-rule="nonzero"/><path fill="#5e696f" d="M 30.976562 32.058594 C 31.011719 32.144531 30.941406 31.972656 30.976562 32.058594 " fill-opacity="1" fill-rule="nonzero"/><path fill="#5e696f" d="M 29.472656 31.335938 C 29.464844 31.335938 29.460938 31.339844 29.457031 31.34375 C 29.394531 31.425781 29.414062 31.496094 29.539062 31.558594 C 29.527344 31.492188 29.457031 32.023438 29.578125 31.914062 C 29.570312 31.925781 29.5625 31.929688 29.558594 31.941406 C 29.460938 31.890625 29 31.828125 28.855469 31.84375 C 28.84375 31.875 28.84375 31.914062 28.84375 31.945312 C 28.867188 31.960938 28.886719 31.957031 28.914062 31.945312 C 28.9375 32.007812 29.117188 32.136719 29.167969 32.058594 C 29.511719 32.242188 29.722656 32.308594 30.058594 32.199219 C 30.066406 32.222656 30.078125 32.246094 30.097656 32.277344 C 30.136719 32.351562 30.4375 32.175781 30.460938 32.140625 C 30.566406 32.183594 30.847656 32.28125 30.847656 32.289062 C 30.855469 32.289062 30.863281 32.285156 30.867188 32.277344 C 30.929688 32.21875 31.011719 32.144531 30.976562 32.058594 C 30.769531 31.542969 29.957031 31.386719 29.472656 31.335938 " fill-opacity="1" fill-rule="nonzero"/><path fill="#5e696f" d="M 27.441406 31.894531 C 27.457031 31.917969 27.484375 31.925781 27.507812 31.929688 C 27.449219 31.882812 27.417969 31.859375 27.441406 31.894531 " fill-opacity="1" fill-rule="nonzero"/><path fill="#5e696f" d="M 27.597656 31.777344 C 27.597656 31.773438 27.597656 31.773438 27.597656 31.773438 C 27.554688 31.734375 27.566406 31.890625 27.617188 31.921875 C 27.585938 31.929688 27.542969 31.933594 27.507812 31.929688 C 27.65625 32.035156 27.960938 32.28125 27.960938 32.082031 C 28.042969 32.089844 28.117188 32.089844 28.199219 32.082031 C 28.214844 32.078125 27.847656 31.449219 27.597656 31.777344 " fill-opacity="1" fill-rule="nonzero"/><path fill="#5e696f" d="M 41.625 11.757812 C 41.480469 11.734375 41.664062 11.765625 41.625 11.757812 " fill-opacity="1" fill-rule="nonzero"/><path fill="#5e696f" d="M 54.738281 14.949219 C 54.953125 15.015625 55.925781 14.746094 55.867188 14.558594 C 56.074219 14.554688 56.195312 14.449219 56.246094 14.25 C 56.246094 14.25 56.242188 14.246094 56.242188 14.242188 C 56.308594 14.207031 56.289062 14.171875 56.191406 14.144531 L 56.1875 14.144531 C 56.1875 14.144531 56.183594 14.144531 56.183594 14.144531 C 56.074219 14.125 56.207031 13.941406 56.203125 13.890625 L 56.203125 13.886719 C 56.34375 13.6875 55.949219 13.832031 55.976562 13.75 C 55.984375 13.714844 55.972656 13.671875 55.933594 13.660156 C 55.5 13.53125 54.859375 13.878906 54.636719 13.914062 C 54.609375 13.917969 54.625 13.917969 54.636719 13.914062 C 54.574219 13.925781 54.527344 13.960938 54.46875 13.988281 C 54.402344 13.78125 54.632812 13.898438 54.53125 13.59375 C 54.527344 13.585938 54.523438 13.582031 54.519531 13.578125 C 54.53125 13.488281 54.429688 13.46875 54.367188 13.421875 C 54.34375 13.40625 54.3125 13.402344 54.285156 13.40625 C 54.25 13.414062 54.242188 13.445312 54.265625 13.46875 C 54.269531 13.488281 54.277344 13.492188 54.292969 13.5 C 54.296875 13.5 54.304688 13.503906 54.3125 13.503906 C 54.324219 13.542969 54.347656 13.582031 54.332031 13.613281 C 54.324219 13.625 54.3125 13.632812 54.304688 13.644531 C 54.265625 13.578125 54.210938 13.558594 54.148438 13.578125 C 54.09375 13.617188 54.109375 13.664062 54.085938 13.714844 C 53.738281 13.5 53.703125 14.179688 54.148438 13.863281 C 54.546875 14.148438 53.800781 14.070312 53.769531 14.09375 C 53.730469 14.121094 54.117188 14.273438 54.148438 14.335938 C 54.109375 14.339844 54.074219 14.351562 54.074219 14.398438 C 54.09375 14.449219 54.089844 14.496094 54.046875 14.535156 C 54.035156 14.335938 53.582031 14.539062 53.734375 14.628906 C 54.0625 14.835938 54.410156 15.039062 54.738281 14.949219 " fill-opacity="1" fill-rule="nonzero"/><path fill="#5e696f" d="M 53.578125 21.304688 C 53.621094 21.121094 53.710938 21.261719 53.757812 21.167969 C 53.746094 21.191406 53.734375 21.222656 53.757812 21.167969 C 53.769531 21.140625 53.761719 21.152344 53.757812 21.167969 C 54.074219 20.503906 53.382812 20.558594 53.046875 20.78125 C 53.058594 20.828125 53.082031 20.871094 53.109375 20.914062 C 53.109375 20.914062 52.042969 21.5 52.601562 21.542969 C 52.457031 21.546875 52.429688 21.734375 52.496094 21.710938 C 52.523438 21.738281 52.550781 21.769531 52.582031 21.796875 C 52.492188 21.808594 52.082031 21.921875 52.113281 22.015625 C 52.117188 22.03125 52.3125 22.425781 52.308594 22.269531 C 52.441406 22.214844 54.183594 21.984375 53.578125 21.304688 " fill-opacity="1" fill-rule="nonzero"/><path fill="#5e696f" d="M 54.277344 20.101562 C 54.296875 20.082031 54.332031 20.050781 54.277344 20.101562 C 54.09375 20.265625 54.007812 20.738281 54.019531 20.71875 C 54.03125 20.6875 54.042969 20.65625 54.054688 20.621094 C 54.164062 20.644531 54.15625 20.496094 54.316406 20.53125 C 54.296875 20.695312 54.078125 20.695312 54.058594 20.804688 C 54.058594 20.816406 54.054688 20.828125 54.050781 20.839844 C 54.050781 20.851562 54.058594 20.871094 54.074219 20.878906 C 54.199219 20.933594 54.328125 20.957031 54.457031 20.953125 C 54.421875 21 54.347656 21.492188 54.328125 21.628906 C 54.082031 21.574219 53.601562 21.84375 53.902344 21.871094 C 53.875 22.007812 53.527344 22.242188 53.507812 22.222656 C 53.707031 22.402344 53.910156 22.230469 54.109375 22.480469 C 54.019531 22.554688 53.066406 22.851562 53.144531 22.957031 C 53.132812 23.027344 53.238281 23.070312 53.265625 22.996094 C 53.285156 22.992188 53.292969 22.980469 53.304688 22.964844 C 53.402344 22.949219 53.550781 22.917969 53.550781 22.929688 C 53.59375 22.703125 55.003906 23.054688 55.15625 22.820312 C 55.371094 22.835938 55.34375 22.460938 55.097656 22.667969 C 55.050781 22.648438 55.03125 22.605469 55.042969 22.527344 C 55.046875 22.523438 55.054688 22.523438 55.054688 22.519531 C 55.058594 22.527344 55.0625 22.535156 55.066406 22.539062 C 55.371094 22.648438 55.808594 22.035156 55.15625 21.957031 C 55.210938 21.828125 55.160156 21.570312 55.238281 21.53125 C 55.335938 21.476562 55.070312 20.394531 54.609375 20.488281 C 54.65625 20.617188 55.429688 19.683594 55.34375 19.71875 C 55.316406 19.714844 55.300781 19.714844 55.296875 19.722656 C 55.273438 19.5625 54.957031 19.644531 54.832031 19.667969 C 54.804688 19.621094 54.800781 19.578125 54.816406 19.535156 C 54.808594 19.515625 54.898438 19.523438 54.902344 19.515625 C 55.003906 19.460938 55.128906 19.316406 55.15625 19.21875 C 55.269531 18.820312 54.265625 19.589844 54.417969 19.550781 C 54.148438 19.429688 54.199219 20.171875 54.277344 20.101562 " fill-opacity="1" fill-rule="nonzero"/><path fill="#5e696f" d="M 54.277344 20.101562 C 54.265625 20.109375 54.257812 20.117188 54.277344 20.101562 " fill-opacity="1" fill-rule="nonzero"/><path fill="#5e696f" d="M 56.5625 26.777344 C 56.5625 26.769531 56.566406 26.769531 56.566406 26.769531 C 56.617188 26.6875 56.355469 26.789062 56.3125 26.800781 C 56.308594 26.800781 56.304688 26.796875 56.300781 26.789062 C 56.324219 26.820312 56.121094 27.179688 56.289062 27.359375 C 56.425781 27.488281 56.585938 26.753906 56.5625 26.777344 " fill-opacity="1" fill-rule="nonzero"/><path fill="#5e696f" d="M 56 27.464844 C 56.003906 27.464844 56.007812 27.453125 56 27.453125 C 55.996094 27.445312 55.988281 27.445312 55.984375 27.4375 C 55.972656 27.425781 55.945312 27.4375 55.945312 27.453125 C 55.949219 27.542969 55.753906 28.421875 55.789062 28.445312 C 56.355469 28.867188 56.6875 27.023438 56 27.464844 " fill-opacity="1" fill-rule="nonzero"/><path fill="#5e696f" d="M 57.160156 29.15625 C 57.179688 29.308594 57.273438 29.386719 57.441406 29.40625 C 57.449219 29.4375 57.457031 29.464844 57.484375 29.496094 C 57.398438 29.820312 57.851562 29.242188 57.90625 28.988281 C 57.859375 28.910156 57.78125 28.902344 57.683594 28.972656 C 57.664062 28.984375 57.65625 28.996094 57.660156 29.007812 C 57.390625 28.980469 57.261719 28.816406 56.992188 28.914062 C 56.992188 28.917969 56.988281 28.921875 56.988281 28.925781 C 56.9375 29.109375 56.996094 29.1875 57.160156 29.15625 " fill-opacity="1" fill-rule="nonzero"/><path fill="#5e696f" d="M 65.328125 55.320312 C 65.382812 55.171875 65.433594 55.027344 65.472656 54.871094 C 65.496094 54.875 65.515625 54.871094 65.523438 54.855469 C 65.738281 54.53125 65.824219 53.996094 65.90625 53.675781 C 65.910156 53.667969 65.910156 53.667969 65.910156 53.660156 C 66.113281 53.558594 66.09375 52.964844 66.125 52.777344 C 66.183594 52.617188 66.058594 52.371094 66.175781 52.238281 C 66.769531 53.234375 66.246094 50.757812 66.164062 50.917969 C 65.878906 51.0625 66.132812 51.289062 65.804688 51.476562 C 65.710938 51.382812 65.757812 51.664062 65.765625 51.691406 C 65.765625 51.695312 65.761719 51.699219 65.761719 51.703125 C 65.582031 51.648438 65.699219 51.875 65.699219 51.910156 C 65.691406 51.914062 65.683594 51.929688 65.679688 51.945312 C 65.699219 51.785156 65.449219 52.179688 65.410156 52.257812 C 65.40625 52.246094 65.402344 52.238281 65.390625 52.226562 C 65.199219 52 65.234375 52.371094 65.210938 52.460938 C 65.277344 52.183594 64.632812 52.441406 64.621094 52.449219 C 64.617188 52.445312 64.613281 52.441406 64.605469 52.4375 C 64.589844 52.421875 64.5625 52.425781 64.542969 52.441406 C 64.222656 52.742188 64.460938 53.132812 64.398438 53.460938 C 64.300781 53.707031 64.273438 54.003906 64.277344 54.273438 C 63.867188 54.371094 63.746094 56.238281 64.117188 56.359375 C 64.179688 56.378906 64.367188 56.484375 64.429688 56.4375 C 64.828125 56.175781 65.433594 56.058594 65.328125 55.324219 C 65.3125 55.195312 65.324219 55.28125 65.328125 55.320312 " fill-opacity="1" fill-rule="nonzero"/><path fill="#5e696f" d="M 58.792969 26.957031 C 58.792969 26.960938 58.789062 26.964844 58.785156 26.964844 C 58.800781 26.949219 58.816406 26.949219 58.832031 26.949219 C 58.828125 26.949219 58.824219 26.949219 58.820312 26.949219 C 58.8125 26.945312 58.796875 26.949219 58.792969 26.957031 " fill-opacity="1" fill-rule="nonzero"/><path fill="#5e696f" d="M 54.140625 23.328125 C 54.164062 23.363281 54.1875 23.40625 54.222656 23.445312 C 54.828125 22.617188 54.324219 23.179688 54.140625 23.328125 " fill-opacity="1" fill-rule="nonzero"/><path fill="#5e696f" d="M 77.316406 41.5 C 77.316406 41.488281 77.300781 41.628906 77.316406 41.5 " fill-opacity="1" fill-rule="nonzero"/><path fill="#5e696f" d="M 54.074219 23.34375 C 54.074219 23.367188 54.09375 23.355469 54.140625 23.328125 C 54.117188 23.300781 54.074219 23.3125 54.074219 23.34375 " fill-opacity="1" fill-rule="nonzero"/><path fill="#5e696f" d="M 58.832031 26.949219 C 58.839844 26.957031 58.847656 26.957031 58.855469 26.957031 C 58.859375 26.957031 58.863281 26.957031 58.867188 26.957031 C 58.851562 26.949219 58.84375 26.949219 58.832031 26.949219 " fill-opacity="1" fill-rule="nonzero"/><path fill="#5e696f" d="M 38.714844 19.0625 C 38.714844 19.066406 38.710938 19.066406 38.714844 19.070312 C 38.730469 19.070312 38.746094 19.070312 38.765625 19.070312 C 38.746094 19.066406 38.730469 19.066406 38.714844 19.0625 " fill-opacity="1" fill-rule="nonzero"/><g transform="matrix(1, 0, 0, 1, 83, 21)"><g clip-path="url(#7126da92c0)"><g fill="#5e696f" fill-opacity="1"><g transform="translate(0.776376, 31.584783)"><g><path d="M 31.234375 -21.75 L 25.46875 0 L 19.703125 0 L 15.984375 -18.09375 L 12.078125 0 L 6.265625 0 L 0.8125 -21.75 L 5.515625 -21.75 L 9.171875 -3.34375 L 13.015625 -21.4375 L 19.125 -21.4375 L 22.84375 -3.28125 L 26.75 -21.75 Z M 31.234375 -21.75 "/></g></g></g><g fill="#5e696f" fill-opacity="1"><g transform="translate(31.249565, 31.584783)"><g><path d="M 3.140625 -14.765625 C 4.679688 -16.390625 6.816406 -17.203125 9.546875 -17.203125 C 12.273438 -17.203125 14.40625 -16.390625 15.9375 -14.765625 C 17.476562 -13.140625 18.25 -11.015625 18.25 -8.390625 C 18.25 -5.773438 17.476562 -3.648438 15.9375 -2.015625 C 14.40625 -0.378906 12.273438 0.4375 9.546875 0.4375 C 6.816406 0.4375 4.679688 -0.378906 3.140625 -2.015625 C 1.609375 -3.648438 0.84375 -5.773438 0.84375 -8.390625 C 0.84375 -11.015625 1.609375 -13.140625 3.140625 -14.765625 Z M 6.46875 -4.140625 C 7.21875 -3.117188 8.242188 -2.609375 9.546875 -2.609375 C 10.847656 -2.609375 11.867188 -3.117188 12.609375 -4.140625 C 13.359375 -5.160156 13.734375 -6.570312 13.734375 -8.375 C 13.734375 -10.1875 13.359375 -11.601562 12.609375 -12.625 C 11.867188 -13.644531 10.847656 -14.15625 9.546875 -14.15625 C 8.242188 -14.15625 7.21875 -13.644531 6.46875 -12.625 C 5.726562 -11.601562 5.359375 -10.1875 5.359375 -8.375 C 5.359375 -6.570312 5.726562 -5.160156 6.46875 -4.140625 Z M 6.46875 -4.140625 "/></g></g></g><g fill="#5e696f" fill-opacity="1"><g transform="translate(49.71617, 31.584783)"><g><path d="M 10.53125 -17.171875 C 11.007812 -17.171875 11.414062 -17.128906 11.75 -17.046875 L 11.75 -13.546875 C 9.90625 -13.671875 8.539062 -13.273438 7.65625 -12.359375 C 6.769531 -11.453125 6.328125 -9.894531 6.328125 -7.6875 L 6.328125 0 L 1.984375 0 L 1.984375 -16.765625 L 6.328125 -16.765625 L 6.328125 -13.703125 L 7.65625 -16.046875 C 8.476562 -16.796875 9.4375 -17.171875 10.53125 -17.171875 Z M 10.53125 -17.171875 "/></g></g></g><g fill="#5e696f" fill-opacity="1"><g transform="translate(61.060758, 31.584783)"><g><path d="M 6.203125 -23.15625 L 6.203125 -5.484375 C 6.203125 -4.742188 6.210938 -4.226562 6.234375 -3.9375 C 6.273438 -3.5 6.429688 -3.207031 6.703125 -3.0625 C 6.984375 -2.914062 7.476562 -2.863281 8.1875 -2.90625 L 8.1875 0.09375 C 7.4375 0.175781 6.546875 0.21875 5.515625 0.21875 C 3.203125 0.21875 2.003906 -0.765625 1.921875 -2.734375 C 1.878906 -3.242188 1.859375 -4.128906 1.859375 -5.390625 L 1.859375 -23.15625 Z M 6.203125 -23.15625 "/></g></g></g><g fill="#5e696f" fill-opacity="1"><g transform="translate(69.222496, 31.584783)"><g><path d="M 18.28125 -23.15625 L 18.28125 0 L 13.9375 0 L 13.9375 -2.578125 L 12.671875 -0.71875 C 11.660156 0.0507812 10.207031 0.4375 8.3125 0.4375 C 6.007812 0.4375 4.1875 -0.347656 2.84375 -1.921875 C 1.507812 -3.492188 0.84375 -5.539062 0.84375 -8.0625 C 0.84375 -10.96875 1.609375 -13.21875 3.140625 -14.8125 C 4.679688 -16.40625 6.597656 -17.203125 8.890625 -17.203125 C 10.609375 -17.203125 11.921875 -16.890625 12.828125 -16.265625 L 13.9375 -14.53125 L 13.9375 -23.15625 Z M 9.578125 -2.609375 C 10.878906 -2.609375 11.929688 -3.054688 12.734375 -3.953125 C 13.535156 -4.847656 13.9375 -6.257812 13.9375 -8.1875 L 13.9375 -9.015625 C 13.9375 -10.753906 13.523438 -12.046875 12.703125 -12.890625 C 11.878906 -13.734375 10.890625 -14.15625 9.734375 -14.15625 C 8.429688 -14.15625 7.375 -13.65625 6.5625 -12.65625 C 5.757812 -11.65625 5.359375 -10.222656 5.359375 -8.359375 C 5.359375 -6.628906 5.738281 -5.238281 6.5 -4.1875 C 7.269531 -3.132812 8.296875 -2.609375 9.578125 -2.609375 Z M 9.578125 -2.609375 "/></g></g></g><g fill="#5e696f" fill-opacity="1"><g transform="translate(88.918121, 31.584783)"><g><path d="M 12.140625 -22.1875 C 14.972656 -22.1875 17.1875 -21.5 18.78125 -20.125 C 20.375 -18.75 21.289062 -16.9375 21.53125 -14.6875 L 21.5625 -14.375 L 17.203125 -14.375 L 17.140625 -14.6875 C 16.578125 -17.519531 14.890625 -18.9375 12.078125 -18.9375 C 10.304688 -18.9375 8.882812 -18.226562 7.8125 -16.8125 C 6.738281 -15.394531 6.203125 -13.457031 6.203125 -11 C 6.203125 -8.375 6.738281 -6.351562 7.8125 -4.9375 C 8.882812 -3.519531 10.28125 -2.8125 12 -2.8125 C 13.394531 -2.8125 14.507812 -3.195312 15.34375 -3.96875 C 16.1875 -4.75 16.753906 -5.832031 17.046875 -7.21875 L 17.109375 -7.53125 L 21.4375 -7.53125 L 21.40625 -7.21875 C 21.164062 -4.863281 20.195312 -3 18.5 -1.625 C 16.800781 -0.25 14.570312 0.4375 11.8125 0.4375 C 8.75 0.4375 6.28125 -0.566406 4.40625 -2.578125 C 2.539062 -4.597656 1.609375 -7.320312 1.609375 -10.75 C 1.609375 -14.238281 2.59375 -17.015625 4.5625 -19.078125 C 6.539062 -21.148438 9.066406 -22.1875 12.140625 -22.1875 Z M 12.140625 -22.1875 "/></g></g></g><g fill="#5e696f" fill-opacity="1"><g transform="translate(110.914221, 31.584783)"><g><path d="M 17.625 -12.515625 C 17.707031 -11.753906 17.75 -10.734375 17.75 -9.453125 L 17.75 0 L 13.390625 0 L 13.390625 -8.859375 C 13.390625 -9.847656 13.367188 -10.625 13.328125 -11.1875 C 13.179688 -13.164062 12.109375 -14.15625 10.109375 -14.15625 C 8.984375 -14.132812 8.070312 -13.597656 7.375 -12.546875 C 6.675781 -11.492188 6.328125 -9.863281 6.328125 -7.65625 L 6.328125 0 L 1.984375 0 L 1.984375 -23.328125 L 6.328125 -23.328125 L 6.328125 -14.0625 L 7.625 -16.046875 C 8.71875 -16.816406 10.0625 -17.203125 11.65625 -17.203125 C 13.425781 -17.203125 14.816406 -16.789062 15.828125 -15.96875 C 16.847656 -15.15625 17.445312 -14.003906 17.625 -12.515625 Z M 17.625 -12.515625 "/></g></g></g><g fill="#5e696f" fill-opacity="1"><g transform="translate(129.853522, 31.584783)"><g><path d="M 17.203125 -8.734375 C 17.203125 -8.117188 17.179688 -7.625 17.140625 -7.25 L 5.234375 -7.25 C 5.484375 -4.15625 6.773438 -2.609375 9.109375 -2.609375 C 10.054688 -2.609375 10.835938 -2.859375 11.453125 -3.359375 C 12.078125 -3.867188 12.460938 -4.566406 12.609375 -5.453125 L 16.953125 -5.453125 C 16.535156 -3.535156 15.617188 -2.070312 14.203125 -1.0625 C 12.785156 -0.0625 11.054688 0.4375 9.015625 0.4375 C 6.597656 0.4375 4.628906 -0.3125 3.109375 -1.8125 C 1.597656 -3.3125 0.84375 -5.476562 0.84375 -8.3125 C 0.84375 -10.925781 1.625 -13.0625 3.1875 -14.71875 C 4.757812 -16.375 6.816406 -17.203125 9.359375 -17.203125 C 11.816406 -17.203125 13.738281 -16.394531 15.125 -14.78125 C 16.507812 -13.164062 17.203125 -11.148438 17.203125 -8.734375 Z M 9.171875 -14.15625 C 7.003906 -14.15625 5.734375 -12.796875 5.359375 -10.078125 L 12.734375 -10.078125 C 12.441406 -12.796875 11.253906 -14.15625 9.171875 -14.15625 Z M 9.171875 -14.15625 "/></g></g></g><g fill="#5e696f" fill-opacity="1"><g transform="translate(147.437751, 31.584783)"><g><path d="M 26.875 -13.046875 C 26.988281 -12.328125 27.046875 -11.304688 27.046875 -9.984375 L 27.046875 0 L 22.6875 0 L 22.6875 -8.734375 C 22.6875 -9.804688 22.644531 -10.71875 22.5625 -11.46875 C 22.332031 -13.257812 21.390625 -14.15625 19.734375 -14.15625 C 17.691406 -14.15625 16.671875 -12.304688 16.671875 -8.609375 L 16.671875 0 L 12.359375 0 L 12.359375 -8.734375 C 12.359375 -9.804688 12.316406 -10.71875 12.234375 -11.46875 C 11.992188 -13.257812 11.035156 -14.15625 9.359375 -14.15625 C 7.335938 -14.15625 6.328125 -12.304688 6.328125 -8.609375 L 6.328125 0 L 1.984375 0 L 1.984375 -16.765625 L 6.328125 -16.765625 L 6.328125 -14.21875 L 7.5625 -16.234375 C 8.488281 -16.878906 9.675781 -17.203125 11.125 -17.203125 C 12.445312 -17.203125 13.539062 -16.910156 14.40625 -16.328125 C 15.28125 -15.753906 15.898438 -14.988281 16.265625 -14.03125 L 17.90625 -16.234375 C 18.820312 -16.878906 20.019531 -17.203125 21.5 -17.203125 C 23.03125 -17.203125 24.253906 -16.8125 25.171875 -16.03125 C 26.097656 -15.257812 26.664062 -14.265625 26.875 -13.046875 Z M 26.875 -13.046875 "/></g></g></g></g></g></svg>