<svg xmlns="http://www.w3.org/2000/svg" xmlns:xlink="http://www.w3.org/1999/xlink" width="360" zoomAndPan="magnify" viewBox="0 0 270 165.000002" height="220" preserveAspectRatio="xMidYMid meet" version="1.0"><defs><g/><clipPath id="1e8e15be0b"><rect x="0" width="242" y="0" height="53"/></clipPath></defs><path fill="#5e696f" d="M 157.765625 43.761719 L 157.757812 43.761719 C 157.757812 43.761719 157.757812 43.761719 157.765625 43.761719 Z M 111.964844 86.285156 C 111.976562 86.273438 111.996094 86.261719 111.996094 86.253906 C 112.027344 86.25 112.066406 86.25 112.105469 86.25 C 112.058594 86.261719 112.015625 86.261719 111.964844 86.285156 Z M 117.503906 104.183594 C 92.28125 94.644531 79.40625 66.542969 88.5 41.265625 C 88.894531 41.886719 89.300781 42.574219 90.089844 42.601562 C 89.789062 43.835938 91.765625 43.339844 92.140625 43.402344 C 92.140625 43.417969 92.152344 43.429688 92.171875 43.433594 C 92.464844 43.519531 92.464844 43.457031 92.535156 43.257812 C 92.566406 43.242188 92.613281 43.238281 92.644531 43.226562 C 92.890625 43.914062 92.949219 45.210938 93.820312 45.324219 C 93.96875 45.363281 94.066406 45.332031 94.195312 45.324219 C 94.175781 46.039062 95.492188 45.714844 95.667969 46.238281 C 95.621094 46.214844 95.589844 46.222656 95.558594 46.242188 C 95.507812 46.210938 95.476562 46.171875 95.425781 46.152344 C 95.417969 46.152344 95.417969 46.152344 95.417969 46.152344 C 95.355469 46.128906 95.289062 46.191406 95.316406 46.257812 C 95.15625 46.460938 95.78125 47.535156 95.894531 47.667969 C 95.894531 47.769531 95.871094 47.859375 95.816406 47.945312 C 95.890625 48.1875 95.902344 48.488281 95.996094 48.792969 C 95.988281 48.800781 95.984375 48.816406 95.976562 48.824219 C 95.972656 48.839844 95.976562 48.859375 95.988281 48.871094 C 96.039062 48.941406 96.097656 48.953125 96.148438 48.902344 C 96.210938 48.757812 96.148438 48.699219 96.113281 48.550781 C 96.144531 48.519531 96.175781 48.484375 96.207031 48.445312 C 97.0625 49.3125 96.410156 49.640625 97.621094 50.101562 C 97.632812 50.160156 97.761719 50.84375 97.96875 50.582031 C 97.984375 50.570312 98.019531 50.441406 98.019531 50.449219 C 98.003906 50.671875 98.035156 50.871094 98.128906 51.054688 C 98.003906 50.976562 99 50.902344 98.535156 50.597656 C 98.523438 50.582031 98.515625 50.582031 98.511719 50.582031 C 98.359375 50.1875 98.957031 49.800781 99.304688 49.707031 C 99.496094 49.972656 100.132812 52 99.859375 51.925781 L 99.890625 51.933594 C 100.058594 52.25 99.433594 53.273438 99.769531 53.488281 L 99.777344 53.488281 C 99.875 53.867188 98.855469 55.023438 98.652344 55.113281 C 98.632812 55.109375 98.605469 55.101562 98.585938 55.109375 C 98.496094 55.140625 98.496094 55.222656 98.535156 55.292969 C 98.429688 55.050781 97.292969 56.414062 97.53125 56.554688 C 96.90625 56.167969 97.910156 58.339844 98.019531 58.265625 C 97.988281 58.742188 97.347656 58.902344 97.230469 59.328125 C 97.167969 59.339844 97.117188 59.378906 97.078125 59.429688 C 97.210938 60.714844 97.109375 61.328125 98.269531 62.382812 C 98.035156 63.132812 99.058594 64.296875 99.101562 64.96875 C 99.035156 65.363281 99.875 66.203125 100.058594 66.539062 C 100.039062 66.683594 100.019531 66.902344 100.121094 67.03125 C 100.109375 67.023438 100.109375 67.015625 100.097656 67.007812 C 100.082031 67.003906 100.066406 67.023438 100.082031 67.039062 C 101.484375 68.410156 102.707031 70.074219 104.003906 71.402344 C 103.984375 71.761719 103.855469 72.183594 104.117188 72.46875 C 104.027344 72.617188 104.300781 74.398438 104.347656 74.410156 C 104.359375 74.410156 104.375 74.410156 104.382812 74.410156 C 104.679688 75.542969 104.351562 77.199219 104.851562 78.230469 C 104.390625 78.890625 104.796875 78.507812 104.996094 79.046875 C 104.996094 79.046875 105 79.046875 104.996094 79.039062 C 105.320312 79.515625 104.644531 79.523438 105.066406 80.019531 C 105.011719 80.152344 105.289062 80.535156 105.429688 80.566406 C 105.574219 81.203125 105.5625 82.203125 105.828125 82.734375 C 105.460938 83.324219 106.050781 84.378906 105.710938 85.105469 C 105.734375 85.179688 105.792969 85.230469 105.886719 85.246094 C 105.859375 85.296875 106.351562 86.34375 106.480469 86.433594 C 106.480469 86.441406 106.472656 86.453125 106.472656 86.460938 C 106.324219 86.839844 107.058594 88.304688 107.117188 88.363281 C 106.859375 88.589844 107.738281 88.425781 107.496094 88.242188 C 107.675781 88.398438 107.699219 88.488281 107.878906 88.285156 C 107.835938 88.363281 107.859375 88.414062 107.949219 88.449219 C 107.617188 88.523438 108.054688 88.972656 108.0625 88.984375 C 108.050781 88.992188 108.039062 89 108.03125 89.011719 C 107.71875 88.984375 108.148438 89.90625 108.210938 89.914062 C 108.214844 89.914062 108.222656 89.914062 108.230469 89.902344 C 108.949219 90.894531 108.730469 90.308594 108.605469 91.328125 C 108.691406 90.824219 109.316406 92.589844 108.78125 91.882812 C 108.757812 91.863281 108.726562 91.875 108.71875 91.898438 L 108.714844 91.898438 C 108.6875 91.945312 108.683594 92.015625 108.691406 92.082031 C 108.738281 91.953125 108.453125 91.453125 108.152344 91.746094 C 108.101562 91.734375 108.386719 92.714844 108.214844 92.664062 C 108.230469 92.664062 108.242188 92.671875 108.253906 92.675781 C 108.394531 92.726562 108.40625 92.296875 108.46875 92.433594 C 108.464844 92.433594 108.464844 92.433594 108.464844 92.433594 C 108.402344 92.589844 108.476562 92.65625 108.683594 92.640625 C 108.730469 92.601562 108.769531 92.550781 108.78125 92.484375 C 108.746094 92.574219 109.101562 93.328125 109.546875 93.199219 C 109.699219 93.277344 109.839844 93.363281 109.96875 93.480469 C 110.019531 93.523438 110.050781 93.554688 109.992188 93.59375 C 109.941406 93.582031 109.203125 93.148438 109.285156 93.492188 C 109.425781 93.796875 109.636719 94.039062 109.800781 94.332031 C 109.730469 94.480469 110.003906 94.371094 110.050781 94.25 C 110.054688 94.382812 110.082031 94.507812 110.125 94.636719 C 109.90625 95.03125 110.78125 96.203125 110.976562 96.496094 C 111.050781 96.578125 111.296875 96.683594 111.359375 96.800781 C 111.355469 96.800781 111.339844 96.8125 111.339844 96.824219 C 111.457031 96.953125 111.546875 97.09375 111.613281 97.261719 C 111.640625 97.28125 111.679688 97.261719 111.6875 97.238281 C 111.753906 97.15625 111.824219 97.082031 111.910156 97.011719 C 111.902344 96.953125 111.820312 96.875 111.773438 96.851562 C 111.773438 96.851562 111.78125 96.839844 111.773438 96.824219 C 112.398438 96.683594 111.519531 97.484375 112.101562 97.84375 C 112.410156 98.015625 112.710938 97.882812 113.085938 97.949219 C 112.777344 98.085938 113.445312 99.328125 113.402344 98.097656 C 113.402344 98.128906 113.410156 98.1875 113.410156 98.097656 C 113.378906 97.453125 113.683594 97.8125 113.90625 97.3125 C 113.976562 97.335938 114 97.3125 113.980469 97.234375 C 113.734375 97.140625 112.882812 95.699219 112.882812 95.796875 C 112.914062 95.539062 112.949219 95.09375 112.816406 94.878906 C 113.109375 94.886719 112.941406 94.503906 113 94.375 C 113.035156 94.316406 113.007812 94.265625 112.972656 94.21875 C 112.945312 94.203125 112.933594 94.203125 112.90625 94.203125 C 112.441406 94.34375 113.238281 93.414062 113.140625 93.171875 C 113.15625 92.945312 113.027344 92.535156 112.609375 92.511719 C 112.5625 92.421875 112.308594 92.117188 112.183594 92.054688 C 112.140625 92.039062 112.066406 92.027344 112.035156 92.015625 C 111.507812 91.90625 111.660156 91.253906 111.824219 91.03125 C 111.832031 91.023438 111.832031 91.015625 111.832031 91.007812 C 111.84375 91.003906 111.886719 90.957031 111.894531 90.957031 C 112.140625 90.703125 112.402344 89.5 111.925781 89.175781 C 112.175781 89.164062 112.675781 88.941406 112.300781 88.800781 C 112.238281 88.894531 111.628906 88.53125 111.488281 88.375 C 111.511719 88.285156 111.507812 88.226562 111.488281 88.171875 C 111.976562 87.992188 112.792969 86.359375 112.265625 86.242188 C 113.328125 86.199219 114.140625 85.980469 114.21875 84.707031 C 114.238281 84.703125 114.253906 84.683594 114.269531 84.660156 C 114.34375 84.238281 113.4375 83.945312 113.585938 83.703125 C 113.714844 83.691406 113.765625 83.582031 113.726562 83.386719 C 113.453125 83.054688 112.371094 82.992188 112.664062 82.277344 C 113.097656 82.519531 113.578125 83.09375 114.160156 83.015625 C 114.167969 83.023438 114.167969 83.023438 114.167969 83.027344 C 114.519531 83.195312 115.058594 83.054688 115.25 82.671875 C 115.523438 81.933594 115.679688 81.496094 115.457031 80.691406 C 115.714844 80.433594 115.855469 79.796875 115.914062 79.464844 C 115.988281 79.414062 116.0625 79.375 116.140625 79.324219 C 116.335938 79.617188 115.632812 80.351562 115.835938 80.535156 C 115.3125 81.160156 116.398438 80.488281 116.28125 79.847656 C 116.433594 79.683594 116.605469 78.855469 116.398438 78.726562 C 116.476562 78.546875 117.089844 77.34375 116.578125 77.265625 C 116.507812 75.835938 118.429688 75.003906 118.332031 74.296875 C 118.609375 74.082031 118.71875 74.097656 118.640625 74.359375 C 118.648438 74.382812 118.679688 74.410156 118.710938 74.40625 C 118.71875 74.410156 118.722656 74.410156 118.730469 74.40625 C 119.171875 74.425781 119.671875 74.609375 119.578125 73.992188 C 120.398438 74.664062 120.933594 68.53125 120.746094 67.921875 C 120.785156 67.898438 120.804688 67.867188 120.804688 67.816406 C 120.8125 67.753906 120.804688 67.683594 120.796875 67.613281 C 121.039062 67.601562 121.007812 67.371094 121.066406 67.207031 C 121.078125 67.199219 121.097656 67.199219 121.109375 67.195312 L 121.109375 67.199219 C 121.117188 66.609375 123.902344 64.703125 123.078125 63.433594 C 121.957031 61.664062 121.695312 60.867188 119.273438 60.148438 C 119.289062 60.109375 119.296875 60.0625 119.273438 60.035156 C 118.738281 59.453125 118.085938 59.722656 117.789062 60.265625 C 117.792969 59.945312 116.953125 57.40625 115.949219 58.429688 C 115.390625 58.472656 115.261719 59.058594 114.503906 58.996094 C 114.5 58.996094 114.5 58.996094 114.5 58.996094 C 114.460938 58.988281 114.425781 58.984375 114.394531 58.972656 C 114.394531 58.957031 114.402344 58.953125 114.394531 58.945312 C 117.324219 57.429688 114.191406 58.628906 113.835938 58.601562 C 113.84375 58.589844 113.824219 58.5625 113.816406 58.558594 C 114.617188 57.863281 113.550781 58.527344 113.601562 58.503906 C 114.625 57.0625 115.382812 56.351562 114.28125 54.578125 C 114.390625 54.484375 114.199219 54.171875 114.039062 54.300781 C 114.019531 54.320312 113.976562 54.351562 113.96875 54.378906 C 113.949219 54.363281 113.917969 54.363281 113.886719 54.355469 C 113.785156 53.714844 113.1875 52.917969 112.378906 53.097656 C 112.378906 53.089844 112.378906 53.089844 112.378906 53.089844 C 112.089844 52.8125 111.5625 53.382812 111.246094 53.089844 C 111.488281 52.621094 110.820312 52.480469 110.546875 52.390625 C 110.78125 51.652344 110.621094 50.925781 109.625 50.953125 C 109.9375 50.136719 108.71875 50.238281 108.699219 49.550781 C 109.292969 49.882812 108.828125 49.476562 108.0625 49.359375 C 108.046875 49.410156 108.039062 49.476562 108.046875 49.53125 C 108.09375 49.539062 108.140625 49.570312 108.183594 49.582031 C 108.152344 49.617188 108.121094 49.65625 108.082031 49.691406 C 107.960938 49.660156 107.140625 49.628906 106.933594 49.679688 C 106.867188 49.648438 105.664062 49.21875 105.664062 49.21875 C 105.675781 48.921875 105.363281 48.527344 105.078125 48.433594 C 105.078125 48.425781 105.035156 48.101562 105.019531 48.050781 C 104.925781 47.828125 104.636719 48.375 104.886719 48.46875 C 104.886719 48.484375 104.886719 48.484375 104.886719 48.488281 C 104.785156 48.738281 103.820312 49.722656 103.492188 50.152344 C 102.640625 49.757812 104.636719 47.757812 104.011719 47.644531 C 103.796875 47.605469 103.550781 47.929688 103.574219 48.101562 C 102.769531 48.125 103.269531 48.445312 102.484375 48.265625 C 102.265625 48.242188 102.410156 48.6875 102.253906 48.710938 C 102.21875 48.667969 102.105469 48.417969 102.003906 48.425781 C 101.832031 48.625 101.625 48.75 101.375 48.820312 C 101.316406 48.871094 101.488281 49.078125 101.421875 49.21875 C 101.4375 49.375 101.433594 49.527344 101.421875 49.679688 C 101.410156 49.679688 101.421875 49.6875 101.433594 49.691406 C 101.421875 49.707031 101.40625 49.707031 101.394531 49.710938 C 101.28125 49.6875 101.164062 49.6875 101.042969 49.714844 C 100.910156 49.832031 100.859375 49.953125 100.703125 50.054688 C 100.453125 50.101562 100.5625 51.511719 100.425781 50.152344 C 100.34375 50.074219 100.25 50.003906 100.140625 49.960938 L 100.140625 49.953125 C 100.386719 49.476562 99.011719 49.078125 99.011719 49.121094 C 99.007812 49.285156 98.117188 49.78125 98.050781 49.640625 C 98.039062 49.601562 97.984375 49.582031 97.957031 49.578125 C 97.875 49.628906 97.785156 49.65625 97.683594 49.640625 C 97.433594 49.183594 97.433594 48.234375 97.136719 47.898438 C 97.441406 47.433594 97.0625 47.148438 97.21875 46.789062 C 97.269531 46.652344 97.347656 46.585938 97.46875 46.605469 C 97.765625 46.332031 98.191406 45.269531 98.152344 44.867188 C 98.160156 44.867188 98.160156 44.867188 98.160156 44.867188 C 98.089844 44.945312 97.894531 44.582031 97.929688 44.472656 C 98.015625 44.136719 97.191406 44.078125 96.996094 43.953125 C 96.988281 43.9375 96.988281 43.933594 96.988281 43.925781 C 96.914062 43.875 96.878906 43.878906 96.871094 43.933594 C 96.738281 44.382812 95.023438 43.914062 95.246094 43.609375 C 96.167969 43.996094 96.078125 41.699219 96.339844 41.777344 C 96.195312 42.601562 97.066406 41.429688 96.816406 41.023438 C 97.117188 40.628906 97.375 40.425781 97.765625 40.09375 C 98.269531 39.710938 96.613281 39.648438 96.5625 39.636719 C 95.632812 39.355469 94.859375 41.265625 94.8125 41.578125 C 94.789062 41.75 94.132812 41.296875 93.875 41.558594 C 91.34375 41.164062 91.910156 38.222656 93.152344 36.128906 C 93.28125 36.097656 93.324219 36.125 93.28125 36.199219 C 93.292969 36.160156 94.652344 34.542969 94.425781 33.902344 C 94.589844 33.84375 95.035156 33.84375 95.054688 33.671875 C 95.5 33.335938 95.773438 33.414062 96.195312 32.941406 C 96.402344 33.050781 97.9375 33.703125 97.753906 33.296875 C 97.714844 33.246094 97.753906 33.234375 97.878906 33.257812 C 97.910156 33.386719 97.945312 33.515625 98.003906 33.628906 C 98.035156 33.644531 98.613281 33.761719 98.707031 33.636719 C 98.734375 33.792969 98.796875 34.054688 98.898438 34.0625 C 98.90625 34.0625 98.90625 34.054688 98.910156 34.054688 C 99.25 34.066406 99.265625 33.164062 99.019531 33.019531 C 99.257812 33.160156 99.886719 32.882812 100.113281 32.890625 C 100.179688 32.953125 101.292969 33.144531 101.246094 33.257812 C 101.019531 33.253906 100.902344 33.335938 101.195312 33.363281 C 101.195312 33.386719 101.363281 33.808594 101.386719 33.808594 C 101.625 33.78125 101.839844 33.578125 102.101562 33.691406 C 102.101562 33.703125 102.246094 34.007812 102.246094 34.023438 C 102.03125 34.199219 102.195312 34.460938 102.316406 34.609375 C 101.824219 35.917969 102.171875 35.753906 102.039062 37.363281 C 102.03125 37.382812 102.023438 37.394531 102.023438 37.417969 C 101.949219 37.6875 103.09375 35.792969 103.296875 35.167969 C 103.269531 35.503906 103.15625 35.972656 103.1875 35.894531 C 103.507812 35.226562 103.839844 33.78125 103.964844 33.042969 C 103.964844 33.03125 103.960938 33.019531 103.953125 33.003906 C 104.066406 32.546875 105.398438 32.214844 105.390625 32.054688 C 106.636719 32.078125 108.363281 30.128906 108.691406 29.566406 C 108.683594 29.441406 108.640625 29.304688 108.589844 29.1875 C 109.285156 29.007812 108.777344 28.253906 109 27.867188 C 109 27.875 109.191406 28.441406 109.203125 28.28125 C 109.402344 28.054688 109.582031 27.824219 109.773438 27.601562 C 109.628906 27.914062 108.988281 28.84375 109.054688 29.1875 C 109.191406 29.261719 109.300781 29.191406 109.40625 28.96875 C 109.507812 28.882812 110.023438 28.175781 110.214844 27.835938 C 110.382812 27.804688 111.441406 26.882812 111.507812 26.832031 C 111.773438 26.871094 112.4375 26.996094 112.660156 26.875 C 112.671875 26.855469 112.683594 26.835938 112.695312 26.820312 C 112.675781 26.730469 112.632812 26.679688 112.578125 26.640625 C 113.277344 26.589844 114.34375 26.488281 114.136719 26.21875 C 114.027344 26.109375 113.949219 26.144531 113.914062 26.308594 C 113.84375 26.175781 113.914062 26.015625 113.84375 25.894531 C 114.097656 25.910156 114.191406 25.773438 114.121094 25.507812 C 114.5 25.441406 114.675781 25.226562 114.664062 24.832031 C 115.070312 25.4375 115.605469 24.535156 115.960938 24.539062 C 116.113281 24.890625 117.96875 24.121094 118.296875 24.101562 C 118.289062 24.105469 118.277344 24.105469 118.265625 24.121094 C 118.257812 24.128906 118.191406 24.246094 118.195312 24.261719 C 118.207031 24.273438 118.207031 24.285156 118.207031 24.296875 C 118.222656 24.3125 118.238281 24.3125 118.246094 24.292969 C 118.246094 24.285156 118.253906 24.285156 118.253906 24.277344 C 118.304688 24.351562 118.257812 24.398438 118.425781 24.375 C 118.5 24.351562 118.527344 24.40625 118.515625 24.539062 C 117.554688 24.738281 117.316406 25.125 116.546875 25.417969 C 116.6875 25.367188 116.929688 25.621094 116.867188 25.601562 C 116.851562 25.601562 116.84375 25.609375 116.84375 25.621094 C 116.851562 25.621094 116.851562 25.628906 116.851562 25.632812 L 116.867188 25.632812 C 116.867188 25.628906 116.871094 25.621094 116.871094 25.621094 C 116.878906 25.609375 116.871094 25.609375 116.871094 25.609375 L 116.871094 25.601562 C 116.878906 25.609375 116.878906 25.609375 116.878906 25.609375 C 117.464844 25.367188 119.945312 24.847656 119.773438 24.277344 C 119.621094 23.847656 118.5625 24.328125 118.871094 23.191406 C 118.875 23.171875 118.863281 23.152344 118.851562 23.140625 C 118.839844 23.128906 118.699219 23.089844 118.671875 23.113281 C 118.6875 23.050781 118.769531 22.972656 118.792969 22.917969 C 118.820312 22.839844 119.117188 22.714844 119.15625 22.683594 C 119.171875 22.683594 119.179688 22.476562 118.863281 22.507812 C 118.863281 22.507812 118.863281 22.507812 118.859375 22.507812 C 118.820312 22.445312 118.769531 22.402344 118.695312 22.371094 C 118.910156 22.171875 120.078125 22.492188 119.941406 21.847656 C 118.78125 21.761719 117.332031 22.554688 115.902344 22.578125 C 115.867188 22.199219 119.09375 21.066406 119.386719 20.8125 L 119.394531 20.816406 C 119.921875 20.492188 121.257812 21.160156 121.589844 20.824219 C 122.5 21.167969 122.867188 21.605469 123.679688 20.644531 C 124.039062 20.78125 125.394531 20.632812 125.578125 20.1875 C 125.789062 19.742188 126.652344 19.042969 125.605469 19.15625 C 125.496094 19.046875 125.75 18.914062 125.800781 18.902344 C 125.808594 18.902344 125.816406 18.894531 125.820312 18.894531 C 125.984375 18.789062 124.261719 19.042969 124.101562 19.023438 C 124.203125 18.621094 125.464844 18.542969 125.839844 18.558594 L 125.839844 18.550781 C 125.84375 18.558594 125.859375 18.558594 125.867188 18.558594 C 125.914062 18.570312 125.949219 18.53125 125.949219 18.492188 C 125.953125 18.449219 125.933594 18.40625 125.882812 18.40625 C 125.875 18.40625 125.773438 18.378906 125.773438 18.367188 C 125.78125 18.367188 125.789062 18.351562 125.792969 18.351562 C 125.832031 18.296875 125.769531 18.203125 125.699219 18.238281 C 125.691406 18.238281 125.691406 18.25 125.6875 18.25 C 125.679688 18.25 125.679688 18.25 125.679688 18.25 C 125.871094 18.074219 124.960938 17.804688 124.949219 17.773438 L 124.949219 17.765625 C 125.453125 17.757812 125.347656 16.761719 124.960938 16.914062 C 124.960938 16.839844 125.839844 15.296875 125.964844 14.96875 C 126 14.992188 126.054688 15 126.105469 14.957031 C 126.121094 14.9375 126.207031 14.304688 126.253906 14.179688 C 126.320312 14.027344 126.347656 13.898438 126.214844 13.746094 C 126.234375 13.65625 126.140625 13.695312 126.097656 13.746094 C 126.082031 13.746094 126.0625 13.753906 126.046875 13.773438 C 125.59375 13.820312 125.191406 14.128906 125.042969 14.515625 C 125.285156 14.40625 124.261719 14.828125 124.421875 14.777344 C 123.769531 14.703125 123.992188 14.742188 123.574219 14.636719 C 124.007812 14.355469 123.480469 14.332031 123.210938 14.382812 C 123.242188 14.179688 123.363281 14.089844 123.5625 14.117188 C 123.804688 13.933594 124.203125 13.453125 124.332031 13.171875 C 124.335938 13.171875 124.332031 13.171875 124.335938 13.171875 C 126.042969 12.582031 124.566406 12.753906 124.453125 12.613281 C 124.4375 12.191406 124.261719 11.882812 124.273438 11.417969 C 124.28125 11.386719 124.261719 11.359375 124.234375 11.339844 C 124.242188 11.328125 124.242188 11.300781 124.222656 11.289062 C 124.125 11.175781 123.957031 11.261719 123.929688 11.390625 C 123.34375 11.328125 124.191406 11.085938 123.257812 11.359375 C 123.484375 11.441406 122.886719 10.277344 122.390625 10.898438 C 122.121094 11.246094 121.277344 12.054688 121.484375 12.179688 C 121.085938 12.230469 121.039062 12.300781 121.105469 12.574219 C 121.105469 12.589844 121.109375 12.605469 121.109375 12.621094 C 121.109375 12.625 121.109375 12.625 121.105469 12.640625 C 121.027344 13.199219 119.492188 13.398438 119.371094 14.6875 C 119.144531 14.777344 118.671875 15.3125 119.171875 15.210938 C 119.304688 15.347656 119.289062 15.433594 119.132812 15.4375 C 118.5625 15.375 117.894531 15.785156 117.394531 16.023438 C 116.292969 16.40625 116.585938 17.222656 115.726562 17.640625 C 115.902344 17.640625 114.882812 18.609375 114.871094 18.609375 C 114.625 18.300781 114.421875 18.542969 114.269531 18.796875 C 113.609375 17.664062 115.140625 16.457031 115.664062 15.777344 C 115.808594 15.585938 114.140625 14.917969 114.117188 14.515625 C 114.109375 14.511719 114.109375 14.511719 114.109375 14.511719 C 114.382812 14.019531 114.121094 13.644531 113.757812 13.398438 C 117.195312 11.765625 120.804688 10.527344 124.535156 9.710938 C 124.597656 9.742188 124.660156 9.773438 124.738281 9.785156 C 124.960938 9.824219 124.917969 9.699219 124.929688 9.636719 C 124.960938 9.621094 125 9.617188 125.03125 9.609375 C 125.070312 9.621094 125.121094 9.636719 125.191406 9.683594 C 125.207031 9.875 125.464844 9.738281 125.371094 9.652344 C 125.386719 9.648438 125.394531 9.636719 125.386719 9.617188 C 125.386719 9.609375 125.386719 9.601562 125.386719 9.597656 C 125.570312 9.636719 125.648438 9.75 125.609375 9.925781 C 125.628906 10.5 126.890625 12.550781 126.898438 12.269531 C 126.902344 12.332031 126.953125 12.308594 127.03125 12.21875 C 127.347656 11.863281 126.832031 11.359375 126.902344 11.007812 C 126.898438 10.972656 126.90625 10.945312 126.953125 10.925781 C 127.003906 11.164062 127.757812 11.761719 127.84375 11.984375 L 127.84375 11.976562 C 128.035156 11.722656 128.625 11.527344 128.679688 11.148438 C 128.691406 11.074219 128.847656 10.285156 128.792969 10.285156 C 128.765625 10.296875 128.742188 10.308594 128.722656 10.320312 C 128.773438 10.257812 128.8125 9.445312 128.796875 9.328125 C 129.199219 9.457031 129.242188 9.46875 129.257812 9.144531 C 129.257812 9.136719 129.300781 9.105469 129.324219 9.085938 C 129.410156 9.101562 129.953125 9.578125 130.238281 9.691406 C 130.039062 9.761719 129.734375 9.875 129.742188 9.863281 C 129.734375 9.902344 129.714844 9.914062 129.695312 9.933594 C 129.664062 9.964844 129.84375 10.660156 129.9375 10.5625 C 130.089844 10.5625 130.238281 10.179688 130.351562 10.105469 C 130.484375 10.667969 130.867188 9.800781 130.875 9.785156 C 130.894531 10.230469 132.414062 9.496094 131.832031 9.132812 C 131.875 9.148438 131.132812 9.265625 131.132812 9.265625 C 131.117188 9.226562 131.078125 9.226562 131.109375 9.226562 C 131.164062 9.203125 131.191406 9.171875 131.191406 9.136719 C 131.261719 9.136719 131.324219 9.105469 131.363281 9.039062 C 131.363281 9.050781 131.371094 9.039062 131.371094 9.035156 C 131.453125 9.035156 131.445312 8.882812 131.332031 8.917969 C 131.292969 8.921875 131.261719 8.933594 131.242188 8.964844 C 131.222656 8.972656 131.207031 8.980469 131.183594 8.984375 C 131.121094 8.949219 131.066406 8.949219 130.988281 8.921875 C 131.015625 8.871094 131.058594 8.839844 131.109375 8.820312 C 131.4375 8.882812 131.496094 8.820312 131.476562 8.703125 C 133.316406 8.578125 135.167969 8.546875 137.027344 8.621094 C 137.027344 8.628906 137.015625 8.628906 137.015625 8.640625 C 137.054688 8.726562 135.914062 8.71875 135.933594 8.859375 C 135.722656 9.074219 136.613281 9.011719 136.703125 9.023438 C 136.734375 9.203125 136.640625 9.238281 136.410156 9.15625 C 136.367188 9.148438 136.332031 9.214844 136.378906 9.238281 C 136.390625 9.246094 136.40625 9.253906 136.414062 9.257812 C 136.40625 9.320312 136.734375 9.480469 136.550781 9.53125 L 136.550781 9.539062 C 136.207031 9.214844 135.761719 9 135.339844 9.304688 C 135.335938 9.304688 135.335938 9.308594 135.335938 9.316406 L 135.328125 9.328125 C 135.308594 9.335938 135.324219 9.355469 135.339844 9.363281 C 135.355469 9.378906 135.386719 9.394531 135.40625 9.378906 C 135.410156 9.371094 135.417969 9.367188 135.425781 9.367188 C 135.429688 9.378906 135.441406 9.394531 135.449219 9.398438 C 135.910156 9.550781 136.109375 9.320312 136.441406 9.785156 C 135.269531 9.800781 135.195312 9.394531 134.433594 10.257812 C 134.242188 10.449219 135.523438 10.144531 135.609375 10.175781 C 135.550781 10.625 134.308594 10.347656 134.136719 11.0625 C 134.132812 11.085938 134.144531 11.121094 134.152344 11.148438 C 134.15625 11.15625 134.925781 10.90625 135.035156 10.894531 C 135.070312 10.921875 133.78125 11.550781 133.882812 11.761719 C 133.800781 11.796875 134.0625 11.847656 134.183594 11.699219 C 134.246094 11.671875 134.304688 11.660156 134.367188 11.644531 C 134.378906 11.824219 134.304688 11.921875 134.132812 11.925781 C 134.121094 11.984375 134.136719 12.019531 134.1875 12.046875 C 134.011719 12.054688 133.847656 12.117188 133.707031 12.238281 C 133.6875 12.289062 133.757812 12.410156 133.757812 12.410156 C 133.71875 12.449219 133.679688 12.484375 133.640625 12.523438 C 133.589844 12.515625 133.539062 12.523438 133.5 12.554688 C 133.386719 12.625 133.371094 12.796875 133.515625 12.855469 C 133.433594 12.980469 133.425781 13.109375 133.515625 13.222656 C 133.46875 13.324219 133.246094 14.292969 133.382812 14.402344 C 133.40625 14.421875 133.53125 14.457031 133.582031 14.472656 C 133.582031 14.484375 133.582031 14.484375 133.582031 14.496094 C 133.34375 14.789062 133.691406 14.839844 133.960938 14.675781 C 134.410156 14.03125 134.632812 15.464844 134.132812 15.261719 C 134.1875 15.390625 134.589844 15.074219 134.203125 15.414062 C 134.226562 15.519531 134.285156 15.527344 134.378906 15.425781 C 134.558594 15.394531 134.609375 15.792969 134.8125 15.527344 C 134.832031 15.503906 134.832031 15.46875 134.820312 15.453125 C 134.820312 15.4375 134.8125 15.4375 134.8125 15.433594 C 134.964844 15.183594 134.804688 15.15625 135.0625 15.234375 C 135.070312 15.242188 135.085938 15.246094 135.101562 15.246094 C 135.449219 15.390625 136.589844 14.117188 136.378906 13.734375 C 136.539062 13.722656 136.9375 13.886719 136.886719 13.605469 C 136.933594 13.605469 137 13.566406 137.015625 13.53125 C 137.046875 13.53125 137.085938 13.53125 137.125 13.523438 C 137.15625 13.511719 137.230469 13.210938 137.238281 13.183594 C 137.246094 13.167969 137.710938 13.402344 137.535156 13.128906 C 137.574219 13.117188 137.574219 13.070312 137.570312 13.046875 C 137.570312 13.046875 138.15625 13.339844 137.925781 12.929688 C 137.890625 12.886719 137.90625 12.878906 137.949219 12.863281 L 137.949219 12.855469 C 138.167969 12.945312 138.382812 12.066406 138.445312 12.078125 C 139.046875 12.613281 138.839844 11.875 139.402344 11.894531 C 139.667969 12.269531 139.707031 12.039062 139.839844 11.875 C 139.847656 11.875 139.855469 11.875 139.859375 11.875 C 140.625 11.1875 139.871094 11.886719 140.128906 11.976562 C 140.425781 12.078125 141.507812 11.722656 141.539062 11.660156 C 142.023438 11.683594 142.214844 11.285156 142.5 10.957031 C 142.605469 10.964844 142.777344 10.945312 142.851562 10.871094 C 143.214844 11.238281 143.339844 10.5 143.378906 10.378906 C 143.429688 10.175781 143.460938 10.355469 143.507812 10.371094 C 143.367188 10.316406 143.800781 11.136719 143.984375 10.816406 C 144.023438 10.617188 144.136719 10.5625 144.320312 10.640625 C 144.386719 11.53125 146.855469 10.003906 147.222656 10.125 C 147.253906 10.171875 147.285156 10.164062 147.3125 10.144531 C 149.039062 10.589844 150.742188 11.117188 152.441406 11.761719 C 154.574219 12.5625 156.605469 13.515625 158.550781 14.566406 C 158.539062 14.585938 158.53125 14.597656 158.527344 14.613281 C 158.402344 14.648438 158.277344 14.710938 158.164062 14.796875 C 158.15625 14.777344 158.136719 14.765625 158.121094 14.757812 C 158.015625 14.726562 157.941406 14.765625 157.871094 14.839844 C 157.625 15.082031 157.296875 15.140625 157.070312 15.347656 C 157.769531 14.902344 156.964844 15.972656 156.4375 16 C 156.386719 15.984375 156.199219 15.992188 156.28125 16.140625 C 156.289062 16.214844 156.351562 16.292969 156.425781 16.34375 C 156.382812 16.140625 154.441406 18.152344 154.183594 18.277344 C 154.140625 18.300781 154.003906 18.519531 154.035156 18.609375 C 154.003906 18.609375 153.917969 18.671875 153.917969 18.683594 C 153.863281 18.519531 153.335938 19.265625 154.046875 18.9375 C 154.128906 19.21875 153.199219 19.175781 152.996094 19.1875 C 152.90625 19.09375 152.863281 19.105469 152.847656 19.210938 C 152.871094 19.246094 152.894531 19.265625 152.894531 19.296875 C 152.886719 19.332031 152.882812 19.378906 152.871094 19.421875 C 152.773438 19.410156 152.664062 19.320312 152.558594 19.382812 C 152.539062 19.347656 152.5625 19.257812 152.558594 19.21875 C 152.511719 19.195312 152.492188 19.21875 152.492188 19.269531 C 152.105469 19.148438 152.816406 20.046875 152.078125 19.269531 C 152.289062 19.53125 151.875 19.792969 151.652344 19.90625 C 151.582031 19.878906 151.507812 19.855469 151.457031 19.816406 C 151.15625 20.046875 151.628906 19.96875 151.617188 20.070312 C 151.617188 20.097656 151.621094 20.117188 151.632812 20.132812 C 151.117188 20.257812 151.410156 20.675781 151.460938 20.605469 C 151.570312 20.632812 151.667969 20.632812 151.765625 20.625 C 151.140625 20.644531 150.585938 21.035156 151.558594 21.257812 C 151.449219 21.511719 150.507812 21.828125 150.902344 22.101562 C 150.925781 22.117188 150.953125 22.121094 150.972656 22.132812 C 150.972656 22.304688 150.894531 22.382812 150.730469 22.363281 C 150.894531 22.4375 151.351562 24.09375 152.289062 22.847656 C 152.292969 22.769531 152.308594 22.699219 152.339844 22.628906 C 152.410156 22.605469 152.460938 22.5625 152.511719 22.503906 C 152.539062 22.554688 152.570312 22.578125 152.621094 22.59375 C 153.003906 22.75 152.9375 22.082031 153.054688 22.019531 C 153.085938 22.503906 152.988281 25.265625 153.410156 25.519531 C 154.140625 25.953125 156.464844 22.503906 156.59375 22.183594 C 156.644531 22.023438 156.335938 22.03125 156.234375 21.957031 C 156.273438 21.90625 156.296875 21.855469 156.304688 21.792969 L 156.324219 21.777344 C 156.179688 21.90625 156.3125 20.316406 156.3125 20.160156 C 156.3125 20.464844 158.171875 18.480469 158.265625 18.351562 C 158.34375 18.378906 158.730469 17.871094 158.699219 17.832031 C 158.707031 17.839844 158.707031 17.84375 158.710938 17.851562 C 158.710938 17.839844 158.707031 17.832031 158.707031 17.820312 C 159.09375 17.792969 159.367188 18.0625 159.78125 17.820312 C 159.789062 17.839844 159.800781 17.859375 159.820312 17.859375 C 160.664062 18.085938 158.8125 19.363281 158.570312 19.457031 C 158.515625 19.433594 158.433594 19.480469 158.402344 19.523438 C 157.8125 20.222656 158.078125 20.949219 157.53125 21.613281 C 157.558594 21.777344 157.699219 21.839844 157.957031 21.804688 C 157.960938 21.804688 157.972656 21.804688 157.984375 21.792969 C 157.992188 21.839844 157.972656 21.859375 157.960938 21.898438 C 157.984375 22.046875 158.101562 22.109375 158.304688 22.089844 C 158.328125 22.097656 158.355469 22.082031 158.375 22.070312 C 158.0625 22.617188 159.003906 22.464844 159.003906 22.375 C 159.589844 22.222656 160.160156 22.171875 160.714844 22.007812 C 160.332031 22.5625 161.117188 22.058594 160.4375 22.746094 C 160.414062 22.734375 160.390625 22.734375 160.367188 22.746094 C 160.359375 22.746094 160.351562 22.75 160.339844 22.757812 C 160.300781 22.683594 160.238281 22.726562 160.167969 22.882812 C 159.703125 22.660156 157.6875 22.960938 158.4375 23.382812 C 158.441406 23.382812 158.449219 23.382812 158.464844 23.386719 C 158.15625 23.433594 158.34375 23.953125 158.628906 23.859375 C 158.539062 24.101562 158.4375 24.335938 158.324219 24.566406 C 158.242188 24.550781 158.15625 24.535156 158.078125 24.527344 C 158.078125 24.5 158.070312 24.488281 158.0625 24.476562 C 158.203125 24.285156 157.984375 24.203125 157.8125 24.21875 C 157.78125 24.195312 157.765625 24.164062 157.78125 24.136719 C 157.773438 24.132812 157.773438 24.136719 157.773438 24.136719 C 157.738281 24.019531 157.6875 23.992188 157.640625 24.042969 C 157.628906 24.042969 157.617188 24.042969 157.609375 24.054688 C 156.726562 24.335938 157.121094 25.417969 156.878906 26.023438 C 156.734375 25.992188 156.699219 25.925781 156.796875 25.839844 C 156.960938 25.5 156.605469 25.398438 156.515625 25.992188 C 156.554688 25.976562 155.988281 25.882812 155.980469 26.046875 C 155.96875 26.332031 156.289062 26.613281 155.707031 26.46875 C 155.617188 26.4375 155.578125 26.226562 155.578125 26.164062 C 155.566406 26.175781 155.503906 26.195312 155.503906 26.195312 C 155.554688 26.15625 155.332031 26.054688 155.34375 26.066406 C 155.292969 26.003906 153.601562 26.464844 153.613281 26.539062 C 153.613281 26.589844 153.621094 26.652344 153.621094 26.71875 C 153.636719 26.832031 153.589844 26.910156 153.464844 26.945312 C 153.625 25.996094 152.457031 26.265625 151.996094 26.09375 C 150.84375 26.015625 152.433594 24.742188 152.433594 24.769531 C 152.390625 24.382812 152.539062 24.019531 152.550781 23.660156 C 152.550781 23.648438 152.550781 23.648438 152.550781 23.636719 C 152.558594 23.574219 152.46875 23.519531 152.410156 23.566406 C 151.691406 23.816406 150.539062 25.441406 151.011719 26.28125 C 150.964844 26.328125 150.941406 26.386719 150.921875 26.449219 C 150.503906 26.519531 150.457031 26.410156 150.03125 26.640625 C 149.980469 26.613281 149.933594 26.59375 149.882812 26.578125 C 149.820312 26.457031 149.484375 26.410156 149.550781 26.613281 C 149.558594 26.632812 149.558594 26.652344 149.558594 26.664062 C 149.539062 26.671875 149.519531 26.679688 149.503906 26.695312 C 149.332031 26.792969 149.296875 26.894531 149.3125 26.984375 C 149.289062 26.964844 149.285156 26.945312 149.261719 26.917969 C 149.3125 27.683594 146.105469 29.089844 145.53125 29.089844 C 145.527344 29.082031 145.519531 29.070312 145.511719 29.058594 C 145.417969 29.1875 145.3125 29.328125 145.195312 29.492188 C 145.164062 29.515625 145.136719 29.550781 145.117188 29.582031 C 144.925781 29.554688 144.289062 29.335938 144.238281 29.414062 C 144.199219 29.464844 144.1875 29.492188 144.179688 29.515625 C 144.054688 29.492188 143.644531 29.335938 143.601562 29.59375 C 143.480469 30.050781 144.199219 30.597656 144.640625 30.6875 C 144.4375 30.878906 144.386719 31.253906 144.683594 31.332031 C 144.671875 31.515625 144.53125 31.746094 144.671875 31.917969 C 144.652344 31.921875 144.625 31.929688 144.609375 31.949219 C 144.148438 32.304688 144.421875 33.5625 143.390625 33.4375 C 143.257812 33.109375 140.730469 32.722656 140.757812 33.132812 C 140.664062 33.285156 140.222656 33.226562 140.121094 33.296875 C 140.078125 33.421875 140.433594 34.914062 139.828125 35.226562 C 139.828125 35.226562 139.089844 36.085938 139.097656 36.058594 C 139.105469 36.015625 139.28125 37.828125 139.136719 37.65625 C 139.195312 37.738281 140.179688 37.738281 140.335938 37.753906 C 140.335938 38.007812 140.335938 38.199219 140.433594 38.445312 C 140.320312 38.179688 143.550781 38.148438 143.429688 37.371094 C 143.429688 37.359375 143.421875 37.359375 143.417969 37.359375 C 143.558594 37.171875 143.734375 37.039062 143.953125 36.96875 C 143.933594 36.734375 143.875 36.515625 143.78125 36.300781 C 143.972656 36.15625 144.988281 35.625 144.75 35.367188 C 144.71875 35.4375 146.195312 35.039062 146.046875 34.992188 C 146.085938 34.992188 146.628906 33.8125 146.804688 33.703125 L 146.808594 33.703125 C 146.808594 33.769531 146.796875 33.839844 146.847656 33.890625 C 147.03125 34.113281 147.117188 33.730469 147.371094 33.976562 C 147.605469 34.226562 148.71875 34.195312 148.910156 33.910156 C 149 33.769531 149.101562 33.628906 149.203125 33.488281 C 149.246094 33.476562 149.289062 33.464844 149.335938 33.4375 C 149.382812 33.546875 149.464844 33.589844 149.589844 33.578125 C 150.414062 34.488281 150.414062 35.660156 151.542969 36.339844 C 152.621094 36.980469 151.445312 37.582031 151.703125 38.285156 C 151.699219 38.285156 151.691406 38.292969 151.671875 38.304688 C 151.667969 38.3125 151.652344 38.332031 151.660156 38.347656 C 151.632812 38.25 153.210938 37.671875 152.550781 36.734375 C 152.9375 36.5625 153.269531 37.371094 153.335938 37.199219 C 153.433594 36.839844 151.140625 33.125 151.015625 32.925781 C 151.269531 32.839844 151.535156 32.777344 151.800781 32.75 C 150.980469 33.246094 152.457031 33.207031 152.367188 33.066406 C 152.308594 34.257812 153.238281 34.097656 153.339844 34.824219 C 153.277344 34.84375 153.207031 34.824219 153.167969 34.851562 C 153.464844 35.027344 154.015625 36.484375 153.953125 36.390625 C 153.5625 36.617188 154.101562 37.6875 154.351562 37.839844 C 154.460938 37.894531 154.585938 37.917969 154.722656 37.925781 C 154.605469 37.988281 154.636719 37.925781 154.460938 37.992188 C 154.222656 38.058594 155.460938 38.699219 155.40625 38.464844 C 155.488281 38.890625 154.492188 38.273438 154.613281 38.644531 C 154.628906 38.6875 154.761719 38.902344 154.675781 38.976562 C 154.671875 38.976562 154.675781 38.976562 154.671875 38.980469 C 154.671875 38.980469 154.664062 38.980469 154.65625 38.984375 C 154.503906 39.089844 154.9375 39.636719 154.925781 39.71875 C 154.941406 39.75 154.96875 39.777344 155 39.789062 C 155.007812 39.792969 155.015625 39.789062 155.019531 39.785156 C 155.019531 39.777344 155.019531 39.769531 155.027344 39.761719 C 155.027344 39.757812 155.027344 39.761719 155.027344 39.761719 C 155.183594 39.59375 154.960938 39.539062 155.25 39.75 C 155.441406 39.878906 155.300781 39.09375 155.265625 39.03125 C 155.28125 39.03125 155.292969 39.027344 155.304688 39.027344 C 155.390625 39.160156 155.464844 39.167969 155.546875 39.042969 C 155.535156 38.984375 155.511719 38.9375 155.464844 38.886719 C 155.480469 38.871094 155.488281 38.871094 155.503906 38.859375 C 155.6875 38.960938 155.816406 38.921875 155.878906 38.757812 C 156.355469 38.796875 155.867188 38.160156 155.484375 38.160156 C 155.460938 38.132812 155.433594 38.109375 155.40625 38.085938 C 155.496094 37.976562 155.535156 37.839844 155.523438 37.703125 C 155.355469 37.6875 155.472656 36.652344 155.738281 37.152344 C 155.738281 37.167969 155.738281 37.167969 155.738281 37.179688 C 155.707031 37.257812 155.726562 37.308594 155.808594 37.324219 C 155.828125 37.320312 155.835938 37.3125 155.84375 37.308594 C 155.847656 37.289062 155.851562 37.28125 155.875 37.28125 C 155.894531 37.234375 155.886719 37.195312 155.875 37.140625 C 155.886719 37.109375 155.90625 37.085938 155.929688 37.089844 C 155.980469 37.308594 156.011719 37.203125 156.128906 37.230469 L 156.140625 37.230469 C 156.152344 37.195312 156.148438 37.152344 156.128906 37.117188 C 156.148438 37.097656 156.171875 37.066406 156.160156 37.066406 C 156.160156 37.058594 156.160156 37.054688 156.152344 37.054688 C 156.183594 37.078125 156.222656 37.097656 156.261719 37.109375 C 156.699219 37.472656 156.425781 36.90625 156.304688 36.898438 C 156.296875 36.898438 156.28125 36.90625 156.28125 36.90625 C 156.273438 36.828125 156.273438 36.757812 156.265625 36.683594 C 156.519531 36.804688 157.191406 36.8125 157.4375 36.757812 C 157.007812 38.222656 159.5 34.710938 158.492188 34.863281 C 158.40625 34.699219 159.492188 33.496094 159.421875 33.4375 C 159.46875 33.398438 159.507812 33.363281 159.507812 33.304688 C 159.507812 33.246094 159.492188 33.183594 159.480469 33.132812 C 159.671875 33.113281 160.574219 32.628906 160.640625 32.433594 C 160.976562 32.828125 161.019531 32.789062 161.523438 33.273438 C 161.238281 33.296875 160.960938 33.464844 160.691406 33.5625 C 160.492188 33.636719 161.441406 34.132812 161.328125 34.222656 C 161.308594 34.238281 162.554688 34.105469 162.703125 33.902344 C 162.726562 33.859375 162.6875 33.800781 162.636719 33.820312 C 162.609375 33.832031 162.585938 33.84375 162.5625 33.84375 C 162.5625 33.84375 162.5625 33.84375 162.554688 33.84375 C 162.363281 33.691406 162.015625 33.820312 161.824219 33.652344 C 161.753906 33.53125 161.714844 33.414062 161.695312 33.273438 C 161.714844 33.257812 161.722656 33.246094 161.730469 33.222656 C 161.734375 33.054688 163.558594 32.660156 163.828125 32.558594 C 163.9375 32.617188 164.050781 32.621094 164.179688 32.570312 C 164.171875 32.621094 164.171875 32.75 164.203125 32.808594 C 164.152344 32.863281 164.097656 32.871094 164.023438 32.832031 C 163.921875 32.839844 163.859375 32.882812 163.78125 32.941406 C 163.675781 33.003906 163.652344 33.03125 163.511719 33.03125 C 163.472656 33.03125 163.453125 33.082031 163.503906 33.09375 C 163.554688 33.109375 163.566406 33.167969 163.617188 33.167969 C 163.636719 33.234375 163.675781 33.296875 163.707031 33.347656 C 163.707031 33.414062 163.667969 33.429688 163.617188 33.464844 C 163.554688 33.417969 163.464844 33.421875 163.394531 33.488281 C 162.683594 34.308594 163.257812 33.753906 163.441406 34.519531 C 163.484375 34.621094 163.558594 34.703125 163.667969 34.761719 C 163.636719 34.785156 164.914062 36.3125 164.859375 36.8125 C 163.929688 37.257812 162.527344 36.300781 162.121094 36.503906 C 162.113281 36.503906 162.113281 36.503906 162.113281 36.503906 C 161.882812 36.417969 162.015625 36.402344 161.746094 36.367188 C 161.753906 36.367188 161.792969 36.144531 161.785156 36.109375 C 161.777344 36.085938 161.753906 36.058594 161.730469 36.066406 C 161.84375 36.046875 161.441406 36.226562 161.410156 36.25 C 160.8125 35.933594 159.4375 36.417969 158.75 36.453125 C 158.707031 36.453125 157.296875 37.511719 157.105469 37.6875 C 157.023438 37.851562 157.601562 37.835938 157.519531 38.238281 C 157.328125 38.25 157.191406 38.324219 157.101562 38.476562 C 157.105469 38.515625 157.113281 38.554688 157.113281 38.59375 C 157.019531 39.015625 157.773438 39.761719 158.101562 39.792969 C 158.101562 39.800781 158.105469 39.808594 158.105469 39.816406 C 158.144531 39.867188 158.597656 40.425781 158.738281 40.050781 C 158.902344 39.539062 159.386719 39.789062 159.640625 40.0625 C 159.640625 40.066406 159.652344 40.066406 159.652344 40.066406 C 159.871094 40.457031 161.570312 40.304688 161.617188 40.132812 C 161.585938 40.234375 161.300781 40.941406 161.316406 41 C 161.363281 41.273438 161.398438 41.496094 161.371094 41.761719 C 160.675781 42.136719 160.996094 43.558594 160.390625 43.816406 C 160.488281 43.824219 159.46875 43.734375 159.460938 43.746094 C 159.449219 43.824219 159.449219 43.875 159.457031 43.953125 C 159.429688 43.773438 158.929688 42.976562 158.640625 43.457031 C 158.625 43.480469 158.601562 43.5 158.597656 43.53125 C 158.707031 43.226562 157.679688 43.53125 157.585938 43.683594 C 157.101562 43.457031 156.554688 43.210938 156.023438 43.316406 C 154.339844 42.03125 154.25 42.996094 153.15625 43.125 C 153.15625 43.367188 153.136719 43.601562 153.117188 43.835938 C 152.9375 43.9375 152.746094 43.964844 152.539062 43.925781 C 152.539062 43.894531 152.539062 43.863281 152.511719 43.828125 C 152.457031 43.746094 152.367188 43.746094 152.277344 43.722656 C 152.144531 42.617188 150.03125 41.945312 149.101562 41.683594 C 148.929688 41.519531 148.808594 41.328125 148.769531 41.097656 C 148.628906 40.503906 149.316406 39.636719 149.386719 38.785156 C 149.234375 38.566406 148.992188 38.5 148.648438 38.59375 C 148.621094 38.574219 148.605469 38.554688 148.578125 38.53125 C 148.570312 38.507812 148.539062 38.507812 148.539062 38.53125 C 148.546875 38.535156 148.546875 38.535156 148.539062 38.539062 C 147.1875 38.285156 145.394531 38.390625 144.082031 38.515625 C 142.808594 38.347656 136.554688 39.644531 137.410156 42.121094 C 136.886719 42.625 131.464844 48.808594 131.765625 48.800781 C 131.789062 48.792969 131.816406 48.792969 131.839844 48.792969 C 131.839844 48.800781 131.839844 48.800781 131.847656 48.808594 C 133.011719 49.660156 130.109375 53.574219 131.210938 54.96875 C 132.273438 56.316406 132.625 58.804688 134.324219 59.835938 C 134.328125 59.835938 134.335938 59.835938 134.34375 59.835938 C 134.972656 61.320312 140.757812 60.265625 142.296875 59.792969 C 142.800781 60.203125 143.449219 62.496094 144.46875 60.996094 C 144.519531 61.308594 144.59375 61.730469 144.949219 61.808594 C 145.171875 61.757812 145.195312 61.839844 144.996094 62.078125 C 144.957031 62.167969 144.855469 63.789062 144.71875 63.757812 C 144.832031 64.011719 143.914062 66.203125 144.753906 66.316406 C 144.988281 66.671875 146.0625 69.757812 146.390625 69.855469 C 146.503906 70.121094 146.675781 72.617188 146.617188 72.902344 C 146.027344 74.015625 145.394531 74.597656 145.453125 75.945312 C 145.328125 75.835938 145.21875 76.027344 145.339844 76.148438 C 145.378906 76.296875 145.238281 76.714844 145.480469 76.792969 C 145.863281 78 146.550781 79.191406 147.0625 80.304688 C 146.195312 81.902344 149.882812 88.195312 149.164062 88.636719 C 149.429688 88.726562 151.148438 89.445312 151.410156 88.75 C 151.855469 89.195312 153.652344 88.113281 153.636719 87.597656 C 153.636719 87.585938 153.632812 87.585938 153.625 87.585938 C 153.746094 87.320312 156.453125 82.875 155.9375 83.15625 C 156.445312 82.875 159.546875 80.179688 157.246094 79.496094 C 157.070312 78.96875 157.210938 78.738281 157.660156 78.800781 C 159.550781 77.3125 160.613281 76.6875 160.765625 74.042969 C 160.875 72.113281 160.167969 70.445312 160.925781 68.773438 C 161.019531 68.539062 160.984375 68.339844 160.945312 68.117188 C 161.007812 68.136719 164.324219 64.585938 164.96875 64.070312 C 165.6875 63.488281 166.878906 59.503906 167.785156 59.265625 C 167.925781 59.351562 167.910156 58.234375 167.679688 58.167969 C 167.664062 58.164062 167.652344 58.15625 167.640625 58.15625 C 167.601562 58.164062 167.5625 58.167969 167.511719 58.15625 C 167.5 58.15625 167.488281 58.167969 167.480469 58.183594 C 166.976562 58.273438 165.789062 58.78125 165.445312 58.726562 C 165.335938 58.558594 164.980469 58.511719 164.800781 58.640625 C 164.585938 58.792969 163.554688 58.09375 163.429688 57.882812 C 163.949219 57.226562 163.96875 56.515625 162.984375 55.878906 C 162.984375 55.535156 161.207031 52.914062 161.316406 52.886719 C 160.632812 52.28125 161.535156 50.316406 160.644531 49.882812 C 160.5625 49.738281 160.5 49.578125 160.441406 49.398438 C 160.992188 49.261719 158.972656 45.515625 159.324219 45.007812 C 159.460938 45.492188 159.691406 45.925781 160.007812 46.320312 C 160.085938 46.40625 160.265625 45.375 160.589844 45.351562 C 160.652344 45.835938 160.390625 47.09375 161.191406 47.335938 C 161.199219 47.335938 161.207031 47.335938 161.207031 47.335938 C 161.363281 47.820312 161.40625 48.039062 161.429688 48.515625 C 161.441406 49.136719 162.90625 50.105469 162.035156 50.660156 C 162.027344 50.671875 162.019531 50.679688 162.019531 50.683594 C 162.019531 50.695312 162.015625 50.695312 162.019531 50.710938 C 161.957031 51.042969 163.140625 53.511719 163.519531 53.90625 C 163.519531 53.910156 163.511719 53.917969 163.519531 53.917969 C 163.578125 54.25 163.554688 55.191406 163.605469 55.367188 C 163.640625 55.699219 163.992188 57.558594 164.59375 57.074219 C 165.988281 57 170.410156 55.078125 170.796875 54.261719 C 171.230469 53.605469 171.351562 53.394531 171.636719 52.605469 C 171.675781 52.503906 172.765625 51.828125 172.585938 51.570312 C 173.164062 50.25 169.898438 49.78125 170.847656 48.304688 C 170.847656 48.316406 170.433594 48.832031 170.433594 48.816406 C 170.425781 48.839844 170.425781 48.851562 170.425781 48.878906 C 170.117188 49.398438 168.988281 50.429688 168.472656 49.488281 C 168.546875 49.113281 168.832031 48.6875 168.570312 48.316406 C 168.171875 48.273438 168.050781 48.457031 168.167969 48.882812 C 168.140625 48.902344 168.132812 48.929688 168.117188 48.953125 C 167.765625 48.164062 167.289062 46.667969 167.136719 45.808594 C 167.257812 45.707031 167.324219 45.582031 167.324219 45.433594 C 167.324219 45.429688 168.195312 45.613281 168.40625 45.753906 C 168.398438 45.757812 168.390625 45.757812 168.390625 45.769531 C 167.984375 46.726562 169.691406 48.378906 170.5625 47.921875 C 170.5625 47.921875 170.5625 47.921875 170.5625 47.914062 C 170.707031 47.929688 170.996094 47.820312 171.078125 47.710938 C 171.65625 47.914062 171.183594 48.675781 171.414062 48.789062 C 171.835938 48.992188 173.980469 49.695312 174.558594 49.449219 C 175.75 48.941406 176.5 50.042969 177.148438 50.648438 C 177.128906 50.671875 177.117188 50.691406 177.105469 50.710938 C 176.875 50.921875 177.734375 51.421875 177.925781 51.414062 C 177.929688 51.480469 177.9375 51.539062 177.945312 51.601562 C 177.945312 51.601562 177.351562 51.5625 177.4375 51.691406 C 177.492188 51.84375 177.5625 51.996094 177.632812 52.148438 C 178.992188 52.851562 178.777344 51.742188 179.394531 51.828125 C 179.402344 51.867188 179.414062 51.90625 179.425781 51.945312 C 179.382812 51.964844 179.363281 52.007812 179.375 52.058594 C 179.3125 52.363281 179.503906 52.851562 179.394531 53.332031 C 179.078125 54.285156 179.695312 57.074219 180.242188 57.996094 C 180.246094 58.011719 180.257812 58.015625 180.265625 58.023438 C 180.265625 58.058594 180.28125 58.09375 180.289062 58.132812 C 180.273438 58.144531 180.265625 58.15625 180.265625 58.175781 C 180.261719 58.472656 180.816406 59.238281 180.929688 59.59375 C 180.925781 59.59375 180.917969 59.59375 180.925781 59.601562 C 180.757812 60.484375 182.238281 63.007812 182.730469 61.277344 C 182.730469 61.277344 182.730469 61.277344 182.726562 61.277344 C 182.964844 61.269531 182.851562 60.765625 182.832031 60.722656 C 183.125 60.226562 183.011719 59.949219 183.300781 59.347656 C 183.441406 59.199219 183.566406 59.039062 183.589844 58.832031 C 183.574219 59.015625 183.664062 56.746094 183.738281 56.914062 C 184.140625 56.671875 184.121094 56.871094 184.347656 56.699219 C 184.40625 58.601562 184.335938 60.523438 184.164062 62.445312 C 184.042969 61.785156 183.753906 60.726562 183.308594 60.863281 C 183.195312 60.855469 182.34375 63.402344 183.382812 63.445312 C 183.457031 63.667969 183.882812 63.464844 184.097656 63.222656 C 183.660156 67.316406 182.707031 71.421875 181.183594 75.441406 C 171.546875 100.925781 142.984375 113.8125 117.503906 104.183594 Z M 110.617188 24.042969 C 110.605469 24.03125 110.605469 24.03125 110.617188 24.042969 Z M 110.640625 24.070312 C 110.71875 24.144531 111.855469 24.246094 112.042969 24.171875 C 111.996094 24.101562 108.40625 25.570312 107.523438 25.328125 C 107.515625 25.246094 107.511719 25.15625 107.515625 25.082031 C 107.808594 25.132812 109.136719 24.898438 109.324219 24.804688 C 109.496094 24.71875 109.671875 24.648438 109.871094 24.605469 C 109.722656 24.757812 110.324219 24.730469 110.050781 24.636719 C 110.070312 24.628906 110.074219 24.605469 110.0625 24.585938 L 110.0625 24.578125 C 110.152344 24.253906 110.335938 24.082031 110.640625 24.070312 Z M 109.5 21.386719 C 109.46875 21.59375 110.582031 22.371094 110.789062 22.289062 C 110.863281 22.238281 110.929688 22.273438 110.960938 22.394531 C 110.660156 22.757812 110.820312 22.9375 110.773438 23.351562 C 110.703125 23.324219 110.257812 23.394531 110.496094 23.496094 C 110.496094 23.496094 110.496094 23.507812 110.496094 23.515625 C 110.445312 23.699219 110.027344 22.796875 109.992188 22.890625 C 109.800781 23.3125 109.246094 24.242188 108.691406 24.296875 C 108.699219 24.285156 108.699219 24.273438 108.707031 24.261719 C 108.714844 24.253906 108.71875 24.246094 108.71875 24.246094 C 109.152344 23.769531 108.492188 23.789062 108.394531 23.609375 C 108.535156 23.878906 109.976562 21.90625 108.832031 22.121094 C 107.476562 22.324219 107.445312 23.699219 106.511719 24.324219 C 106.699219 24.324219 105.1875 25.136719 105.496094 24.4375 C 105.496094 24.4375 105.496094 24.4375 105.503906 24.4375 C 105.777344 24.183594 107.203125 22.472656 107.066406 22.28125 C 107.574219 21.867188 107.585938 21.570312 108.09375 21.910156 C 108.164062 21.957031 109.507812 21.738281 109.660156 21.929688 C 109.304688 21.496094 107.769531 21.242188 108.007812 20.78125 C 109.308594 20.097656 106.199219 20.570312 106.3125 20.492188 C 106.339844 20.472656 106.339844 20.449219 106.339844 20.421875 C 106.492188 20.351562 108.675781 19.433594 108.699219 19.703125 C 108.726562 19.683594 108.757812 19.664062 108.78125 19.652344 C 108.808594 19.777344 109 19.753906 108.980469 19.625 C 109.023438 19.417969 109.121094 19.21875 109.265625 19.054688 C 109.273438 19.027344 109.261719 18.988281 109.242188 18.980469 C 108.777344 18.691406 110.457031 18.074219 109.773438 18.964844 C 109 19.371094 109.425781 19.328125 109.527344 19.816406 C 109.535156 19.847656 109.550781 19.867188 109.578125 19.894531 C 109.648438 20.050781 109.914062 20.746094 109.890625 20.769531 C 109.847656 20.785156 109.523438 21.320312 109.507812 21.355469 C 109.507812 21.371094 109.507812 21.382812 109.5 21.386719 Z M 165.011719 19.816406 C 164.382812 20.097656 163.636719 18.351562 163.363281 17.539062 C 164 17.984375 164.617188 18.441406 165.222656 18.914062 C 164.832031 18.796875 164.492188 18.722656 164.503906 18.804688 C 164.511719 18.925781 165.046875 19.796875 165.011719 19.816406 Z M 167.5625 35.511719 C 167.578125 35.5 167.589844 35.492188 167.609375 35.480469 C 167.792969 35.308594 167.691406 34.222656 168.25 33.742188 C 168.460938 33.753906 169.84375 32.546875 170.058594 33.414062 C 170.171875 33.828125 169.894531 34.023438 169.960938 34.328125 C 169.867188 34.402344 168.886719 34.785156 168.851562 34.972656 C 168.792969 35.449219 169.117188 36.167969 169.5625 36.367188 C 169.609375 36.734375 169.632812 37.089844 169.644531 37.460938 C 169.671875 37.503906 169.726562 37.511719 169.765625 37.472656 C 169.875 37.320312 169.824219 37.097656 169.816406 36.894531 C 170.121094 36.609375 170.691406 37.851562 170.617188 37.929688 C 170.417969 37.90625 169.988281 37.714844 169.796875 37.773438 C 169.777344 37.746094 169.765625 37.734375 169.746094 37.738281 L 169.742188 37.738281 C 169.734375 37.746094 169.722656 37.757812 169.726562 37.765625 C 169.691406 38.6875 170.433594 39.234375 170.148438 40.707031 C 170.121094 40.699219 170.058594 40.707031 170.007812 40.707031 C 170.027344 40.757812 168.71875 40.890625 168.519531 40.296875 C 168.578125 40.132812 167.851562 39.28125 167.914062 38.902344 C 169.550781 39.421875 167.570312 35.765625 167.5625 35.511719 Z M 153.109375 9.984375 C 126.652344 -0.0117188 96.988281 13.371094 86.984375 39.828125 C 76.980469 66.289062 90.371094 95.953125 116.828125 105.960938 C 143.296875 115.964844 172.953125 102.574219 182.964844 76.117188 C 192.964844 49.65625 179.578125 19.988281 153.109375 9.984375 " fill-opacity="1" fill-rule="nonzero"/><path fill="#5e696f" d="M 116.4375 99.382812 C 116.464844 99.398438 116.484375 99.410156 116.507812 99.425781 C 116.574219 99.425781 116.449219 99.382812 116.4375 99.382812 " fill-opacity="1" fill-rule="nonzero"/><path fill="#5e696f" d="M 116.4375 99.382812 C 115.871094 99.144531 115.390625 98.789062 114.828125 98.542969 C 114.777344 98.164062 114.328125 97.769531 113.917969 97.699219 C 113.710938 98.1875 113.734375 97.753906 113.96875 98.589844 C 113.96875 98.597656 113.96875 98.597656 113.96875 98.597656 C 113.816406 98.71875 114.59375 99.046875 114.667969 99.144531 C 114.410156 99.179688 113.554688 99.296875 113.402344 99.234375 C 113.441406 99.242188 113.492188 99.257812 113.550781 99.257812 C 113.609375 99.417969 114.230469 99.425781 114.390625 99.347656 L 114.394531 99.335938 C 114.828125 99.625 117.144531 99.425781 116.507812 99.425781 C 116.445312 99.398438 116.4375 99.390625 116.4375 99.382812 " fill-opacity="1" fill-rule="nonzero"/><path fill="#5e696f" d="M 113.914062 97.699219 C 113.917969 97.699219 113.917969 97.699219 113.917969 97.699219 C 113.929688 97.679688 113.945312 97.667969 113.949219 97.640625 C 113.945312 97.652344 113.925781 97.679688 113.914062 97.699219 " fill-opacity="1" fill-rule="nonzero"/><path fill="#5e696f" d="M 124.921875 23.515625 C 125 23.484375 124.949219 23.375 124.867188 23.402344 C 124.800781 23.417969 124.746094 23.457031 124.699219 23.503906 C 124.695312 23.496094 124.6875 23.496094 124.679688 23.503906 C 124.261719 23.730469 124.445312 23.660156 124.585938 23.253906 C 125.34375 23.0625 124.648438 23.089844 124.503906 23.179688 C 124.183594 23.039062 125.132812 22.707031 125.042969 22.515625 C 124.707031 21.804688 124.296875 22.820312 124.027344 22.546875 C 124.019531 22.542969 124.019531 22.542969 124.007812 22.535156 C 124.085938 22.402344 124.40625 22.289062 124.15625 22.117188 C 124.214844 22.109375 124.28125 22.078125 124.316406 22.023438 C 124.402344 22.058594 124.566406 21.890625 124.476562 21.886719 C 124.457031 21.878906 124.4375 21.886719 124.425781 21.890625 C 124.371094 21.753906 124.019531 21.839844 123.886719 21.898438 C 124.042969 21.664062 125.042969 21.191406 125.011719 21.015625 C 125.007812 20.976562 124.980469 20.957031 124.960938 20.9375 C 124.96875 20.90625 124.992188 20.875 125.015625 20.847656 C 125.074219 20.84375 123.667969 21.777344 123.011719 22.28125 C 122.574219 22.238281 121.613281 22.808594 121.816406 23.132812 C 121.785156 23.636719 123.308594 23.335938 123.414062 23.382812 C 123.265625 23.648438 123.316406 23.609375 123.71875 23.574219 C 123.726562 23.585938 123.726562 23.59375 123.726562 23.597656 C 123.625 23.636719 123.066406 23.878906 123.070312 23.941406 C 123.117188 24.296875 124.078125 23.550781 124.121094 23.714844 C 124.007812 23.816406 123.886719 24.261719 123.929688 24.195312 C 123.941406 24.175781 123.957031 24.164062 123.96875 24.160156 C 124.078125 24.195312 125.089844 24.730469 124.761719 23.609375 C 124.816406 23.574219 124.859375 23.546875 124.921875 23.515625 " fill-opacity="1" fill-rule="nonzero"/><path fill="#5e696f" d="M 103.601562 41.265625 C 103.703125 40.730469 101.179688 39.027344 101.230469 38.902344 C 100.808594 38.960938 98.925781 38.910156 99.011719 39.566406 C 99.011719 39.566406 99.007812 39.5625 99 39.566406 C 98.820312 39.726562 99.355469 39.828125 99.382812 39.554688 C 99.960938 39.535156 100.210938 39.457031 100.726562 39.292969 C 101.402344 39.5625 100.265625 39.476562 100.789062 39.675781 C 100.605469 39.953125 101.171875 39.679688 101.164062 39.6875 C 101.195312 39.898438 101.3125 40.007812 101.515625 40.019531 C 101.585938 40.183594 101.972656 40.355469 102.164062 40.363281 C 102.1875 40.386719 102.203125 40.398438 102.214844 40.425781 C 102.152344 40.839844 103.25 41.660156 102.203125 41.800781 C 102.261719 41.875 103.378906 42.011719 103.507812 41.914062 C 103.574219 41.855469 103.605469 41.789062 103.679688 41.757812 C 103.703125 41.980469 103.992188 41.839844 104.109375 41.75 C 104.109375 41.757812 104.117188 41.761719 104.125 41.765625 C 103.976562 41.550781 104.246094 41.445312 103.601562 41.265625 " fill-opacity="1" fill-rule="nonzero"/><path fill="#5e696f" d="M 107.179688 43.265625 C 107.238281 43.402344 107.121094 43.125 107.179688 43.265625 " fill-opacity="1" fill-rule="nonzero"/><path fill="#5e696f" d="M 104.703125 42.066406 C 104.691406 42.066406 104.683594 42.074219 104.679688 42.085938 C 104.570312 42.21875 104.605469 42.335938 104.8125 42.433594 C 104.792969 42.328125 104.679688 43.207031 104.875 43.019531 C 104.863281 43.039062 104.851562 43.046875 104.84375 43.066406 C 104.683594 42.984375 103.921875 42.882812 103.683594 42.90625 C 103.664062 42.957031 103.664062 43.019531 103.664062 43.070312 C 103.703125 43.097656 103.738281 43.09375 103.78125 43.070312 C 103.820312 43.179688 104.117188 43.390625 104.203125 43.265625 C 104.765625 43.5625 105.109375 43.671875 105.664062 43.492188 C 105.683594 43.53125 105.703125 43.570312 105.734375 43.621094 C 105.796875 43.746094 106.296875 43.457031 106.332031 43.398438 C 106.503906 43.46875 106.96875 43.625 106.96875 43.640625 C 106.980469 43.640625 106.996094 43.632812 107 43.621094 C 107.101562 43.523438 107.238281 43.402344 107.179688 43.265625 C 106.839844 42.410156 105.496094 42.15625 104.703125 42.066406 " fill-opacity="1" fill-rule="nonzero"/><path fill="#5e696f" d="M 101.347656 42.988281 C 101.378906 43.027344 101.421875 43.039062 101.464844 43.046875 C 101.367188 42.972656 101.3125 42.933594 101.347656 42.988281 " fill-opacity="1" fill-rule="nonzero"/><path fill="#5e696f" d="M 101.609375 42.800781 C 101.609375 42.792969 101.609375 42.792969 101.609375 42.792969 C 101.539062 42.730469 101.558594 42.984375 101.640625 43.035156 C 101.59375 43.046875 101.519531 43.054688 101.464844 43.046875 C 101.707031 43.226562 102.207031 43.625 102.207031 43.300781 C 102.34375 43.316406 102.46875 43.316406 102.601562 43.300781 C 102.628906 43.296875 102.023438 42.257812 101.609375 42.800781 " fill-opacity="1" fill-rule="nonzero"/><path fill="#5e696f" d="M 124.738281 9.785156 C 124.503906 9.75 124.800781 9.800781 124.738281 9.785156 " fill-opacity="1" fill-rule="nonzero"/><path fill="#5e696f" d="M 146.359375 15.050781 C 146.714844 15.15625 148.316406 14.71875 148.222656 14.40625 C 148.5625 14.402344 148.761719 14.230469 148.84375 13.898438 C 148.84375 13.898438 148.839844 13.894531 148.839844 13.886719 C 148.949219 13.828125 148.917969 13.773438 148.757812 13.726562 L 148.75 13.726562 C 148.75 13.726562 148.746094 13.726562 148.746094 13.722656 C 148.5625 13.695312 148.785156 13.390625 148.777344 13.308594 L 148.777344 13.300781 C 149.007812 12.96875 148.355469 13.210938 148.398438 13.070312 C 148.414062 13.011719 148.394531 12.945312 148.332031 12.925781 C 147.617188 12.714844 146.5625 13.289062 146.195312 13.34375 C 146.148438 13.351562 146.171875 13.351562 146.195312 13.34375 C 146.089844 13.363281 146.011719 13.421875 145.917969 13.464844 C 145.804688 13.121094 146.1875 13.320312 146.019531 12.816406 C 146.011719 12.804688 146.007812 12.796875 146.003906 12.789062 C 146.019531 12.640625 145.847656 12.613281 145.75 12.53125 C 145.707031 12.503906 145.65625 12.5 145.613281 12.511719 C 145.558594 12.515625 145.542969 12.574219 145.582031 12.613281 C 145.589844 12.640625 145.601562 12.652344 145.625 12.664062 C 145.632812 12.664062 145.644531 12.671875 145.65625 12.671875 C 145.675781 12.734375 145.714844 12.796875 145.691406 12.847656 C 145.675781 12.867188 145.65625 12.878906 145.644531 12.898438 C 145.582031 12.789062 145.492188 12.757812 145.386719 12.789062 C 145.300781 12.855469 145.320312 12.929688 145.28125 13.011719 C 144.710938 12.664062 144.652344 13.785156 145.386719 13.261719 C 146.046875 13.734375 144.816406 13.597656 144.761719 13.644531 C 144.695312 13.6875 145.335938 13.933594 145.386719 14.039062 C 145.320312 14.042969 145.261719 14.066406 145.261719 14.140625 C 145.300781 14.230469 145.289062 14.304688 145.21875 14.371094 C 145.199219 14.039062 144.453125 14.375 144.703125 14.523438 C 145.246094 14.867188 145.816406 15.203125 146.359375 15.050781 " fill-opacity="1" fill-rule="nonzero"/><path fill="#5e696f" d="M 144.449219 25.53125 C 144.519531 25.226562 144.667969 25.457031 144.742188 25.304688 C 144.722656 25.34375 144.703125 25.394531 144.742188 25.304688 C 144.761719 25.257812 144.75 25.277344 144.742188 25.304688 C 145.261719 24.210938 144.125 24.296875 143.570312 24.664062 C 143.589844 24.742188 143.628906 24.8125 143.671875 24.882812 C 143.671875 24.882812 141.917969 25.851562 142.839844 25.925781 C 142.597656 25.933594 142.554688 26.238281 142.667969 26.199219 C 142.710938 26.246094 142.753906 26.296875 142.808594 26.339844 C 142.660156 26.359375 141.980469 26.546875 142.03125 26.703125 C 142.035156 26.730469 142.363281 27.378906 142.355469 27.125 C 142.570312 27.027344 145.449219 26.652344 144.449219 25.53125 " fill-opacity="1" fill-rule="nonzero"/><path fill="#5e696f" d="M 145.601562 23.546875 C 145.632812 23.515625 145.691406 23.464844 145.601562 23.546875 C 145.300781 23.816406 145.15625 24.597656 145.171875 24.566406 C 145.195312 24.515625 145.210938 24.464844 145.230469 24.40625 C 145.417969 24.4375 145.402344 24.195312 145.664062 24.253906 C 145.632812 24.527344 145.269531 24.527344 145.238281 24.707031 C 145.238281 24.722656 145.230469 24.742188 145.226562 24.761719 C 145.226562 24.78125 145.238281 24.8125 145.261719 24.828125 C 145.472656 24.914062 145.683594 24.960938 145.898438 24.953125 C 145.835938 25.03125 145.714844 25.839844 145.683594 26.066406 C 145.277344 25.976562 144.488281 26.417969 144.980469 26.464844 C 144.9375 26.691406 144.367188 27.074219 144.335938 27.046875 C 144.660156 27.339844 144.996094 27.058594 145.320312 27.46875 C 145.171875 27.59375 143.601562 28.078125 143.734375 28.253906 C 143.710938 28.371094 143.890625 28.441406 143.933594 28.320312 C 143.964844 28.3125 143.976562 28.296875 143.996094 28.269531 C 144.15625 28.246094 144.402344 28.191406 144.402344 28.210938 C 144.472656 27.835938 146.796875 28.414062 147.050781 28.027344 C 147.402344 28.054688 147.359375 27.4375 146.949219 27.777344 C 146.875 27.746094 146.839844 27.671875 146.863281 27.550781 C 146.867188 27.542969 146.878906 27.542969 146.878906 27.535156 C 146.886719 27.550781 146.894531 27.554688 146.898438 27.5625 C 147.402344 27.746094 148.125 26.734375 147.046875 26.601562 C 147.140625 26.390625 147.058594 25.964844 147.1875 25.902344 C 147.34375 25.8125 146.90625 24.03125 146.148438 24.183594 C 146.226562 24.398438 147.503906 22.859375 147.359375 22.917969 C 147.3125 22.910156 147.285156 22.910156 147.28125 22.921875 C 147.242188 22.65625 146.722656 22.796875 146.515625 22.828125 C 146.472656 22.757812 146.460938 22.683594 146.492188 22.609375 C 146.480469 22.578125 146.625 22.59375 146.628906 22.578125 C 146.796875 22.492188 147 22.253906 147.050781 22.089844 C 147.234375 21.433594 145.582031 22.699219 145.832031 22.636719 C 145.386719 22.4375 145.472656 23.660156 145.601562 23.546875 " fill-opacity="1" fill-rule="nonzero"/><path fill="#5e696f" d="M 145.601562 23.546875 C 145.582031 23.558594 145.570312 23.574219 145.601562 23.546875 " fill-opacity="1" fill-rule="nonzero"/><path fill="#5e696f" d="M 149.367188 34.558594 C 149.367188 34.542969 149.375 34.542969 149.375 34.542969 C 149.375 34.542969 149.375 34.542969 149.375 34.539062 C 149.457031 34.402344 149.027344 34.570312 148.953125 34.59375 C 148.949219 34.59375 148.941406 34.582031 148.933594 34.570312 C 148.976562 34.621094 148.644531 35.21875 148.917969 35.511719 C 149.140625 35.726562 149.40625 34.511719 149.367188 34.558594 " fill-opacity="1" fill-rule="nonzero"/><path fill="#5e696f" d="M 148.441406 35.691406 C 148.445312 35.691406 148.453125 35.667969 148.441406 35.667969 C 148.433594 35.652344 148.421875 35.652344 148.414062 35.640625 C 148.394531 35.625 148.351562 35.640625 148.351562 35.667969 C 148.355469 35.816406 148.03125 37.261719 148.09375 37.308594 C 149.027344 38 149.570312 34.957031 148.441406 35.691406 " fill-opacity="1" fill-rule="nonzero"/><path fill="#5e696f" d="M 150.355469 38.476562 C 150.386719 38.726562 150.539062 38.859375 150.820312 38.890625 C 150.832031 38.941406 150.84375 38.984375 150.890625 39.039062 C 150.75 39.574219 151.492188 38.617188 151.582031 38.199219 C 151.507812 38.070312 151.378906 38.058594 151.214844 38.171875 C 151.179688 38.191406 151.171875 38.210938 151.175781 38.230469 C 150.734375 38.183594 150.519531 37.917969 150.074219 38.078125 C 150.074219 38.085938 150.066406 38.089844 150.066406 38.09375 C 149.984375 38.402344 150.082031 38.53125 150.355469 38.476562 " fill-opacity="1" fill-rule="nonzero"/><path fill="#5e696f" d="M 163.824219 81.617188 C 163.910156 81.375 163.992188 81.132812 164.054688 80.878906 C 164.097656 80.882812 164.128906 80.878906 164.140625 80.851562 C 164.496094 80.316406 164.636719 79.433594 164.777344 78.90625 C 164.78125 78.890625 164.78125 78.890625 164.78125 78.878906 C 165.113281 78.714844 165.082031 77.734375 165.132812 77.421875 C 165.234375 77.160156 165.023438 76.753906 165.214844 76.539062 C 166.195312 78.179688 165.335938 74.09375 165.195312 74.359375 C 164.730469 74.597656 165.144531 74.96875 164.605469 75.277344 C 164.453125 75.125 164.527344 75.589844 164.542969 75.632812 C 164.542969 75.636719 164.535156 75.648438 164.535156 75.652344 C 164.242188 75.5625 164.433594 75.9375 164.433594 75.996094 C 164.421875 76.003906 164.410156 76.027344 164.402344 76.054688 C 164.433594 75.785156 164.019531 76.433594 163.957031 76.570312 C 163.949219 76.550781 163.941406 76.539062 163.921875 76.519531 C 163.609375 76.140625 163.667969 76.753906 163.632812 76.90625 C 163.742188 76.445312 162.675781 76.867188 162.65625 76.878906 C 162.652344 76.875 162.644531 76.867188 162.632812 76.859375 C 162.605469 76.835938 162.554688 76.84375 162.527344 76.867188 C 162 77.363281 162.390625 78.007812 162.289062 78.546875 C 162.128906 78.957031 162.078125 79.445312 162.089844 79.890625 C 161.414062 80.050781 161.214844 83.132812 161.824219 83.328125 C 161.925781 83.363281 162.238281 83.539062 162.339844 83.460938 C 162.996094 83.027344 163.992188 82.835938 163.824219 81.621094 C 163.796875 81.410156 163.816406 81.550781 163.824219 81.617188 " fill-opacity="1" fill-rule="nonzero"/><path fill="#5e696f" d="M 153.046875 34.851562 C 153.046875 34.855469 153.039062 34.863281 153.035156 34.863281 C 153.0625 34.835938 153.085938 34.835938 153.109375 34.835938 C 153.105469 34.835938 153.097656 34.835938 153.09375 34.835938 C 153.078125 34.832031 153.054688 34.835938 153.046875 34.851562 " fill-opacity="1" fill-rule="nonzero"/><path fill="#5e696f" d="M 145.371094 28.867188 C 145.417969 28.925781 145.453125 28.996094 145.511719 29.058594 C 146.503906 27.695312 145.675781 28.625 145.371094 28.867188 " fill-opacity="1" fill-rule="nonzero"/><path fill="#5e696f" d="M 183.589844 58.832031 C 183.589844 58.8125 183.566406 59.039062 183.589844 58.832031 " fill-opacity="1" fill-rule="nonzero"/><path fill="#5e696f" d="M 145.261719 28.890625 C 145.261719 28.933594 145.300781 28.914062 145.371094 28.867188 C 145.335938 28.824219 145.261719 28.84375 145.261719 28.890625 " fill-opacity="1" fill-rule="nonzero"/><path fill="#5e696f" d="M 153.109375 34.835938 C 153.125 34.851562 153.136719 34.851562 153.148438 34.851562 C 153.15625 34.851562 153.160156 34.851562 153.167969 34.851562 C 153.144531 34.835938 153.128906 34.835938 153.109375 34.835938 " fill-opacity="1" fill-rule="nonzero"/><path fill="#5e696f" d="M 119.941406 21.835938 C 119.941406 21.839844 119.933594 21.839844 119.941406 21.847656 C 119.964844 21.847656 119.988281 21.847656 120.023438 21.847656 C 119.988281 21.839844 119.964844 21.839844 119.941406 21.835938 " fill-opacity="1" fill-rule="nonzero"/><g transform="matrix(1, 0, 0, 1, 14, 106)"><g clip-path="url(#1e8e15be0b)"><g fill="#5e696f" fill-opacity="1"><g transform="translate(0.26594, 42.601228)"><g><path d="M 42.96875 -29.921875 L 35.03125 0 L 27.09375 0 L 21.984375 -24.890625 L 16.609375 0 L 8.625 0 L 1.125 -29.921875 L 7.59375 -29.921875 L 12.625 -4.59375 L 17.90625 -29.484375 L 26.3125 -29.484375 L 31.4375 -4.515625 L 36.8125 -29.921875 Z M 42.96875 -29.921875 "/></g></g></g><g fill="#5e696f" fill-opacity="1"><g transform="translate(42.186548, 42.601228)"><g><path d="M 4.328125 -20.3125 C 6.441406 -22.550781 9.378906 -23.671875 13.140625 -23.671875 C 16.898438 -23.671875 19.832031 -22.550781 21.9375 -20.3125 C 24.050781 -18.070312 25.109375 -15.144531 25.109375 -11.53125 C 25.109375 -7.945312 24.050781 -5.023438 21.9375 -2.765625 C 19.832031 -0.515625 16.898438 0.609375 13.140625 0.609375 C 9.378906 0.609375 6.441406 -0.515625 4.328125 -2.765625 C 2.222656 -5.023438 1.171875 -7.945312 1.171875 -11.53125 C 1.171875 -15.144531 2.222656 -18.070312 4.328125 -20.3125 Z M 8.90625 -5.6875 C 9.9375 -4.289062 11.347656 -3.59375 13.140625 -3.59375 C 14.929688 -3.59375 16.335938 -4.289062 17.359375 -5.6875 C 18.390625 -7.09375 18.90625 -9.039062 18.90625 -11.53125 C 18.90625 -14.019531 18.390625 -15.960938 17.359375 -17.359375 C 16.335938 -18.765625 14.929688 -19.46875 13.140625 -19.46875 C 11.347656 -19.46875 9.9375 -18.765625 8.90625 -17.359375 C 7.882812 -15.960938 7.375 -14.019531 7.375 -11.53125 C 7.375 -9.039062 7.882812 -7.09375 8.90625 -5.6875 Z M 8.90625 -5.6875 "/></g></g></g><g fill="#5e696f" fill-opacity="1"><g transform="translate(67.590232, 42.601228)"><g><path d="M 14.484375 -23.625 C 15.148438 -23.625 15.710938 -23.566406 16.171875 -23.453125 L 16.171875 -18.640625 C 13.628906 -18.816406 11.75 -18.273438 10.53125 -17.015625 C 9.320312 -15.753906 8.71875 -13.609375 8.71875 -10.578125 L 8.71875 0 L 2.734375 0 L 2.734375 -23.0625 L 8.71875 -23.0625 L 8.71875 -18.859375 L 10.53125 -22.0625 C 11.664062 -23.101562 12.984375 -23.625 14.484375 -23.625 Z M 14.484375 -23.625 "/></g></g></g><g fill="#5e696f" fill-opacity="1"><g transform="translate(83.196476, 42.601228)"><g><path d="M 8.546875 -31.875 L 8.546875 -7.546875 C 8.546875 -6.535156 8.554688 -5.828125 8.578125 -5.421875 C 8.640625 -4.816406 8.859375 -4.410156 9.234375 -4.203125 C 9.609375 -4.003906 10.285156 -3.929688 11.265625 -3.984375 L 11.265625 0.125 C 10.234375 0.238281 9.007812 0.296875 7.59375 0.296875 C 4.40625 0.296875 2.753906 -1.054688 2.640625 -3.765625 C 2.585938 -4.460938 2.5625 -5.679688 2.5625 -7.421875 L 2.5625 -31.875 Z M 8.546875 -31.875 "/></g></g></g><g fill="#5e696f" fill-opacity="1"><g transform="translate(94.424215, 42.601228)"><g><path d="M 25.140625 -31.875 L 25.140625 0 L 19.171875 0 L 19.171875 -3.5625 L 17.4375 -1 C 16.039062 0.0703125 14.046875 0.609375 11.453125 0.609375 C 8.265625 0.609375 5.753906 -0.472656 3.921875 -2.640625 C 2.085938 -4.804688 1.171875 -7.625 1.171875 -11.09375 C 1.171875 -15.082031 2.222656 -18.175781 4.328125 -20.375 C 6.441406 -22.570312 9.078125 -23.671875 12.234375 -23.671875 C 14.597656 -23.671875 16.398438 -23.238281 17.640625 -22.375 L 19.171875 -19.984375 L 19.171875 -31.875 Z M 13.1875 -3.59375 C 14.976562 -3.59375 16.421875 -4.207031 17.515625 -5.4375 C 18.617188 -6.664062 19.171875 -8.609375 19.171875 -11.265625 L 19.171875 -12.40625 C 19.171875 -14.800781 18.601562 -16.578125 17.46875 -17.734375 C 16.34375 -18.890625 14.984375 -19.46875 13.390625 -19.46875 C 11.597656 -19.46875 10.144531 -18.78125 9.03125 -17.40625 C 7.925781 -16.03125 7.375 -14.054688 7.375 -11.484375 C 7.375 -9.117188 7.898438 -7.210938 8.953125 -5.765625 C 10.003906 -4.316406 11.414062 -3.59375 13.1875 -3.59375 Z M 13.1875 -3.59375 "/></g></g></g><g fill="#5e696f" fill-opacity="1"><g transform="translate(121.518609, 42.601228)"><g><path d="M 16.6875 -30.53125 C 20.59375 -30.53125 23.644531 -29.582031 25.84375 -27.6875 C 28.039062 -25.789062 29.296875 -23.296875 29.609375 -20.203125 L 29.65625 -19.765625 L 23.671875 -19.765625 L 23.59375 -20.203125 C 22.8125 -24.109375 20.484375 -26.0625 16.609375 -26.0625 C 14.179688 -26.0625 12.226562 -25.082031 10.75 -23.125 C 9.28125 -21.175781 8.546875 -18.507812 8.546875 -15.125 C 8.546875 -11.519531 9.28125 -8.738281 10.75 -6.78125 C 12.226562 -4.832031 14.148438 -3.859375 16.515625 -3.859375 C 18.421875 -3.859375 19.953125 -4.390625 21.109375 -5.453125 C 22.265625 -6.523438 23.046875 -8.015625 23.453125 -9.921875 L 23.546875 -10.359375 L 29.484375 -10.359375 L 29.4375 -9.921875 C 29.125 -6.691406 27.796875 -4.128906 25.453125 -2.234375 C 23.109375 -0.335938 20.046875 0.609375 16.265625 0.609375 C 12.035156 0.609375 8.632812 -0.773438 6.0625 -3.546875 C 3.5 -6.328125 2.21875 -10.070312 2.21875 -14.78125 C 2.21875 -19.582031 3.570312 -23.40625 6.28125 -26.25 C 9 -29.101562 12.46875 -30.53125 16.6875 -30.53125 Z M 16.6875 -30.53125 "/></g></g></g><g fill="#5e696f" fill-opacity="1"><g transform="translate(151.777662, 42.601228)"><g><path d="M 24.234375 -17.21875 C 24.347656 -16.175781 24.40625 -14.769531 24.40625 -13 L 24.40625 0 L 18.421875 0 L 18.421875 -12.1875 C 18.421875 -13.539062 18.394531 -14.609375 18.34375 -15.390625 C 18.132812 -18.109375 16.660156 -19.46875 13.921875 -19.46875 C 12.359375 -19.4375 11.097656 -18.695312 10.140625 -17.25 C 9.191406 -15.8125 8.71875 -13.570312 8.71875 -10.53125 L 8.71875 0 L 2.734375 0 L 2.734375 -32.078125 L 8.71875 -32.078125 L 8.71875 -19.34375 L 10.5 -22.0625 C 12 -23.132812 13.847656 -23.671875 16.046875 -23.671875 C 18.472656 -23.671875 20.382812 -23.109375 21.78125 -21.984375 C 23.1875 -20.859375 24.003906 -19.269531 24.234375 -17.21875 Z M 24.234375 -17.21875 "/></g></g></g><g fill="#5e696f" fill-opacity="1"><g transform="translate(177.831616, 42.601228)"><g><path d="M 23.671875 -12.015625 C 23.671875 -11.171875 23.644531 -10.488281 23.59375 -9.96875 L 7.203125 -9.96875 C 7.546875 -5.71875 9.320312 -3.59375 12.53125 -3.59375 C 13.832031 -3.59375 14.910156 -3.941406 15.765625 -4.640625 C 16.617188 -5.335938 17.144531 -6.289062 17.34375 -7.5 L 23.328125 -7.5 C 22.742188 -4.875 21.476562 -2.863281 19.53125 -1.46875 C 17.582031 -0.0820312 15.207031 0.609375 12.40625 0.609375 C 9.082031 0.609375 6.378906 -0.421875 4.296875 -2.484375 C 2.210938 -4.554688 1.171875 -7.546875 1.171875 -11.453125 C 1.171875 -15.035156 2.242188 -17.96875 4.390625 -20.25 C 6.546875 -22.53125 9.375 -23.671875 12.875 -23.671875 C 16.257812 -23.671875 18.90625 -22.554688 20.8125 -20.328125 C 22.71875 -18.109375 23.671875 -15.335938 23.671875 -12.015625 Z M 12.625 -19.46875 C 9.644531 -19.46875 7.894531 -17.601562 7.375 -13.875 L 17.515625 -13.875 C 17.109375 -17.601562 15.476562 -19.46875 12.625 -19.46875 Z M 12.625 -19.46875 "/></g></g></g><g fill="#5e696f" fill-opacity="1"><g transform="translate(202.021455, 42.601228)"><g><path d="M 36.984375 -17.953125 C 37.128906 -16.960938 37.203125 -15.5625 37.203125 -13.75 L 37.203125 0 L 31.21875 0 L 31.21875 -12.015625 C 31.21875 -13.484375 31.160156 -14.738281 31.046875 -15.78125 C 30.722656 -18.238281 29.421875 -19.46875 27.140625 -19.46875 C 24.335938 -19.46875 22.9375 -16.925781 22.9375 -11.84375 L 22.9375 0 L 17 0 L 17 -12.015625 C 17 -13.484375 16.941406 -14.738281 16.828125 -15.78125 C 16.503906 -18.238281 15.1875 -19.46875 12.875 -19.46875 C 10.101562 -19.46875 8.71875 -16.925781 8.71875 -11.84375 L 8.71875 0 L 2.734375 0 L 2.734375 -23.0625 L 8.71875 -23.0625 L 8.71875 -19.5625 L 10.40625 -22.328125 C 11.675781 -23.222656 13.3125 -23.671875 15.3125 -23.671875 C 17.125 -23.671875 18.628906 -23.273438 19.828125 -22.484375 C 21.035156 -21.691406 21.882812 -20.628906 22.375 -19.296875 L 24.625 -22.328125 C 25.894531 -23.222656 27.546875 -23.671875 29.578125 -23.671875 C 31.679688 -23.671875 33.367188 -23.132812 34.640625 -22.0625 C 35.910156 -21 36.691406 -19.628906 36.984375 -17.953125 Z M 36.984375 -17.953125 "/></g></g></g></g></g></svg>